<?xml version="1.0" encoding="utf-8"?>
<!-- Generator: Adobe Illustrator 26.0.0, SVG Export Plug-In . SVG Version: 6.00 Build 0)  -->
<svg version="1.1" id="Camada_1" xmlns="http://www.w3.org/2000/svg" xmlns:xlink="http://www.w3.org/1999/xlink" x="0px" y="0px"
	 viewBox="0 0 500 500" style="enable-background:new 0 0 500 500;" xml:space="preserve">
<style type="text/css">
	.st0{fill:#F5F5F5;}
	.st1{fill:#E0E0E0;}
	.st2{fill:#37474F;}
	.st3{fill:#263238;}
	.st4{fill:#455A64;}
	.st5{opacity:0.15;enable-background:new    ;}
	.st6{fill:#EF4444;}
	.st7{opacity:0.7;fill:#FFFFFF;enable-background:new    ;}
	.st8{opacity:5.000000e-02;enable-background:new    ;}
	.st9{opacity:0.1;enable-background:new    ;}
	.st10{opacity:0.25;enable-background:new    ;}
	.st11{opacity:0.35;enable-background:new    ;}
	.st12{opacity:0.3;}
	.st13{opacity:0.5;fill:#FFFFFF;enable-background:new    ;}
	.st14{opacity:0.8;fill:#FFFFFF;enable-background:new    ;}
	.st15{opacity:0.2;fill:#FFFFFF;enable-background:new    ;}
	.st16{opacity:0.2;enable-background:new    ;}
	.st17{opacity:0.6;fill:#FFFFFF;enable-background:new    ;}
	.st18{opacity:0.3;fill:#FFFFFF;enable-background:new    ;}
	.st19{opacity:0.4;fill:#FFFFFF;enable-background:new    ;}
</style>
<g id="freepik--Floor--inject-102">
	<ellipse id="freepik--floor--inject-102" class="st0" cx="250" cy="346.5" rx="222.7" ry="128.6"/>
</g>
<g id="freepik--Shadows--inject-102">
	<path id="freepik--Shadow--inject-102" class="st1" d="M438.5,332.2c-5.8-2.1-19.6-4.1-42.8-5.8c-30.4-2.2-38.2-3.8-40.1,2.6
		l-34.6-6.7c0.2-8.1-5-16.3-15.7-22.5c-21-12.1-55.1-12.1-76.1,0s-21,31.8,0,43.9c12.2,7.1,28.9,10,44.8,8.8l24.5,28.2
		c0,0-3.6,2.3,1,8.6c5,6.8,30.5,41.3,34.4,44.7c6.2,5.3,18.1,9.2,34.8-0.3c19.1-10.8-0.6-21-11.7-28.6c-13.5-9.3-42.4-29-46.1-31.6
		c-2.8-2-5.6,0.8-5.6,0.8l-20.8-23.1c7.3-1.3,14.4-3.9,20.9-7.5c8-4.6,13-10.4,14.9-16.4l34.1,6.8c0,0-1.6,3,5.6,5
		c6.2,1.7,52.5,13.5,60.8,12.5c8.1-1,14.6-5.7,18.6-10.4C444.3,335.4,441.3,333.2,438.5,332.2z"/>
	<g id="freepik--shadows--inject-102">
		<path class="st1" d="M155.5,409.4c-1.8,0-3.4-1.3-3.7-3.1l-0.9-4.6c-2-0.4-3.9-0.8-5.8-1.4H145l-8,3.7c-0.6,0.3-1.2,0.4-1.9,0.4
			c-0.8,0-1.6-0.2-2.3-0.6l-8-4.6c-1-0.5-1.6-1.5-1.7-2.6c0-1.1,0.5-2.2,1.4-2.8l4.9-3.5c-0.4-0.6-0.8-1.2-1.2-1.8l-10.2-0.6
			c-1.9-0.1-3.4-1.7-3.4-3.6v-6c0-1.9,1.5-3.5,3.4-3.6l10.2-0.6c0.4-0.6,0.8-1.2,1.2-1.8l-4.8-3.5c-1.5-1-1.8-2.9-0.9-4.4
			c0.3-0.4,0.7-0.8,1.1-1l8-4.6c1.3-0.7,2.8-0.8,4.1-0.2l8,3.7h0.1l0,0c1.9-0.6,3.9-1.1,5.9-1.4l0.9-4.6c0.4-1.8,1.9-3.1,3.7-3.1
			h11.8c1.8,0,3.4,1.3,3.7,3.1l0.9,4.6c2,0.4,3.9,0.8,5.8,1.4h0.1l8-3.7c1.3-0.6,2.9-0.5,4.2,0.2l8,4.6c1.5,0.8,2.1,2.8,1.3,4.3
			c-0.2,0.5-0.6,0.8-1,1.1l-4.8,3.5c0.4,0.6,0.8,1.2,1.2,1.8l10.2,0.6c1.9,0.1,3.4,1.7,3.4,3.6v6c0,1.9-1.5,3.5-3.4,3.6l-10.2,0.6
			c-0.4,0.6-0.8,1.2-1.2,1.8l4.8,3.5c1.5,1,1.8,3,0.8,4.4c-0.3,0.4-0.7,0.8-1.1,1l-8,4.6c-0.7,0.4-1.5,0.6-2.3,0.6
			c-0.6,0-1.3-0.1-1.9-0.4l-8-3.7h-0.1c-1.9,0.6-3.9,1.1-5.9,1.4l-0.9,4.6c-0.4,1.8-1.9,3.1-3.7,3.1H155.5z M161.4,372.8
			c-4.3-0.1-8.5,0.9-12.2,2.9c-2.7,1.6-4.3,3.6-4.3,5.6s1.6,4,4.3,5.6c7.7,3.9,16.8,3.9,24.5,0c2.7-1.6,4.3-3.6,4.3-5.6
			s-1.6-4-4.3-5.6C169.9,373.7,165.7,372.7,161.4,372.8L161.4,372.8z"/>
		<path class="st1" d="M70.8,365.7c-0.3,0-0.5,0-0.8-0.1l-9-2.1c-0.9-0.2-1.7-0.9-2.1-1.7c-0.4-0.9-0.4-2,0.1-2.9l1.4-2.7
			c-0.8-0.5-1.6-0.9-2.3-1.4l-8.1,1.4c-0.2,0-0.5,0.1-0.7,0.1c-1.2,0-2.4-0.5-3.1-1.5l-3.5-4.9l-0.8-0.5l0.1-2.1l0.1-0.2
			c0.1-0.2,0.1-0.4,0.3-0.6l0.1-0.1c0.5-0.7,1.1-1.2,1.9-1.5l6.2-2c0-0.2,0-0.4,0-0.6l-6.4-2c-1.1-0.3-1.9-1.3-2.1-2.4l-0.1-0.2
			v-0.4c0-0.7,0.2-1.4,0.7-2l3.2-4.5c0.8-1.1,2-1.7,3.3-1.7c0.2,0,0.4,0,0.6,0l8.3,1.4l0,0c0.5-0.4,1.2-0.8,1.8-1.1l0.5-0.3
			l-1.5-2.9c-0.2-0.4-0.3-0.9-0.3-1.4c0.1-1.5,1.2-2.8,2.7-3.1l8.6-2.1c0.3-0.1,0.7-0.1,1-0.1c1.1,0,2.1,0.4,2.8,1.1l3.7,3.9
			c0.8,0,1.7-0.1,2.6-0.1s1.8,0,2.7,0.1l3.5-3.7c0.8-0.8,1.9-1.3,3.1-1.4c0.3,0,0.6,0,0.8,0.1l8.9,2.1c1.3,0.3,2.3,1.4,2.4,2.7v0.1
			v0.4c0,0.5-0.1,1-0.4,1.5l-1.3,2.7l0.4,0.2c0.7,0.4,1.3,0.8,1.9,1.2l8.1-1.4c0.2,0,0.5-0.1,0.7-0.1c1.2,0,2.4,0.5,3.1,1.5l3.6,5
			c0.4,0.5,0.6,1.1,0.6,1.7v0.2c-0.1,1.4-1.1,2.5-2.4,2.9l-6.2,2v0.6l6.4,2c1.3,0.4,2.2,1.6,2.2,2.9c0,0.7-0.2,1.4-0.6,2l-3.3,4.6
			c-0.8,1.1-2,1.7-3.3,1.7c-0.2,0-0.4,0-0.6,0l-8.2-1.4l0,0c-0.7,0.5-1.5,1-2.3,1.4l1.4,2.9c0.4,0.8,0.4,1.8,0,2.6
			c-0.5,1-1.3,1.6-2.4,1.9l-8.6,2.1c-0.3,0.1-0.7,0.1-1,0.1c-1.1,0-2.1-0.4-2.8-1.1l-3.8-3.9c-0.8,0-1.7,0.1-2.6,0.1s-1.8,0-2.7-0.1
			l-3.5,3.7C73,365.2,71.9,365.7,70.8,365.7z M68,340.2c-0.1,0.1-0.1,0.2-0.2,0.3c-0.1,0.1-0.2,0.2-0.2,0.3l-0.2,0.3
			c-0.7,1.1-0.6,2.5,0.3,3.5c0.4,0.6,1,1.1,1.6,1.5c0.4,0.3,0.7,0.5,1.1,0.7c3,1.6,6.4,2.3,9.8,2.3c1.8,0,3.6-0.2,5.4-0.6
			c1.5-0.3,3-0.9,4.4-1.7c0.4-0.2,0.7-0.4,1.1-0.7c0.7-0.5,1.3-1.1,1.8-1.8l0,0l0.2-0.4l0.1-0.2c0.4-1,0.2-2.2-0.5-3
			c-1.9-2.7-6.9-4.5-12.4-4.5c-1.8,0-3.6,0.2-5.4,0.6c-2.4,0.5-4.6,1.6-6.4,3.2L68,340.2z"/>
	</g>
</g>
<g id="freepik--Gears--inject-102">
	<g id="freepik--gears--inject-102">
		<path class="st2" d="M205.7,369.6v-4.8c0-0.6-0.4-1-1-1.1l-7.6-0.5v-10.7l0,0c0-0.2-0.1-0.5-0.4-0.6l-8-4.6
			c-0.5-0.3-1.2-0.3-1.8-0.1l-8.1,3.8c-0.6,0.2-1.2,0.3-1.9,0.1c-2.1-0.6-4.2-1.1-6.3-1.5c-0.6-0.1-1-0.6-1.2-1.1l-1-5.4
			c-0.1-0.6-0.6-1-1.2-1h-11.8c-0.6,0-1.1,0.4-1.2,1l-1,5.4c-0.1,0.6-0.6,1-1.2,1.1c-2.1,0.4-4.2,0.9-6.3,1.5
			c-0.6,0.2-1.3,0.1-1.9-0.1l-8.1-3.8c-0.6-0.2-1.2-0.2-1.8,0.1l-8,4.6c-0.2,0.1-0.4,0.3-0.4,0.6v10.7l-7.6,0.5c-0.6,0-1,0.5-1,1.1
			v6l0,0v4.2l0,0v6l0,0c0,0.1,0.1,0.2,0.1,0.3c0,0.1,0.1,0.3,0.2,0.4s0.3,0.2,0.5,0.2c0.1,0,0.1,0.1,0.2,0.1h0.1l7.4,0.5l0,0v6.1
			l0,0v4.6l0,0l0,0c0,0.1,0,0.1,0.1,0.2l0,0c0.1,0.1,0.2,0.2,0.3,0.3l8,4.6l0,0c0.2,0.1,0.5,0.2,0.8,0.2h0.2c0.1,0,0.2,0,0.3,0l0,0
			c0.2,0,0.3,0,0.5-0.1l8.1-3.8c0.6-0.2,1.2-0.3,1.9-0.1c2.1,0.6,4.2,1.1,6.3,1.5c0.6,0.1,1,0.6,1.2,1.1l1,5.3
			c0,0.1,0.1,0.2,0.2,0.3v0.1c0,0.1,0.1,0.1,0.2,0.1c0,0.1,0.1,0.1,0.2,0.1c0.2,0.2,0.4,0.2,0.7,0.2h11.8c0.3,0,0.5-0.1,0.7-0.3l0,0
			c0.2-0.2,0.4-0.4,0.4-0.7l1-5.3c0.1-0.6,0.6-1,1.2-1.1c2.1-0.4,4.2-0.9,6.3-1.5c0.6-0.2,1.3-0.1,1.9,0.1l8.1,3.8
			c0.2,0.1,0.5,0.1,0.8,0.1l0,0c0.3,0,0.7-0.1,1-0.2l8-4.6c0.2-0.1,0.4-0.3,0.4-0.5l0,0v-10.7l7.6-0.5c0.6,0,1-0.5,1-1.1v-11.1
			C205.6,369.7,205.7,369.6,205.7,369.6z M176.5,374.6c-0.5,0.4-1,0.7-1.6,1c-7.5,4.3-19.6,4.3-27.1,0c-0.5-0.3-1.1-0.6-1.6-1
			c0.5-0.3,1-0.7,1.6-1c7.5-4.3,19.6-4.3,27.1,0C175.5,373.9,176,374.2,176.5,374.6L176.5,374.6z"/>
		<path class="st3" d="M205.7,369.8v11.1c0,0.6-0.4,1-1,1.1l-7.6,0.5v10.7c0,0.2-0.2,0.4-0.4,0.5l-8,4.6c-0.3,0.2-0.7,0.2-1,0.2l0,0
			c-0.3,0-0.5,0-0.8-0.1l-8.1-3.8c-0.2-0.1-0.5-0.2-0.8-0.2l0,0c-0.4,0-0.7,0-1.1,0.1c-2.1,0.6-4.2,1.1-6.3,1.5
			c-0.2,0-0.3,0.1-0.5,0.2v0.1c-0.3,0.2-0.6,0.5-0.7,0.9l-1,5.3c-0.1,0.3-0.2,0.5-0.4,0.7l0,0c-0.2,0.2-0.5,0.3-0.8,0.3h-11.8h-0.2
			c-0.3-0.1-0.6-0.2-0.8-0.5v-0.1c-0.1-0.1-0.2-0.2-0.2-0.3l-1-5.3c-0.1-0.3-0.2-0.6-0.5-0.8l0,0c-0.2-0.2-0.4-0.3-0.7-0.4
			c-2.1-0.4-4.2-0.9-6.3-1.5c-0.4-0.1-0.8-0.1-1.2-0.1l0,0c-0.2,0-0.4,0.1-0.6,0.1l-8.1,3.8c-0.2,0-0.3,0.1-0.5,0.1l0,0l0,0
			c-0.4,0.1-0.9,0-1.3-0.2l0,0l-8-4.6c-0.1,0-0.1-0.1-0.2-0.1c0,0-0.1-0.1-0.1-0.2s-0.1-0.2-0.1-0.2l0,0v-10.7l-1.4-0.1l-6.1-0.4
			H118c-0.5,0-1-0.5-1-1v-10.2c0,0.6,0.4,1,1,1.1l10.7,0.7c0.6,0.1,1.1,0.5,1.4,1c0.6,1.1,1.4,2.2,2.3,3.1c0.3,0.3,0.3,0.8,0,1.2
			l-0.1,0.1l-6.4,4.5c-0.3,0.1-0.4,0.5-0.3,0.8c0.1,0.1,0.2,0.2,0.3,0.3l8,4.6c0.6,0.3,1.2,0.3,1.8,0.1l8.1-3.8
			c0.6-0.2,1.2-0.3,1.9-0.1c2.1,0.6,4.2,1.1,6.3,1.5c0.6,0.1,1,0.6,1.2,1.1l1,5.4c0.1,0.6,0.6,1,1.2,1h11.8c0.6,0,1.1-0.4,1.2-1
			l1-5.4c0.1-0.6,0.6-1,1.2-1.1c2.1-0.4,4.2-0.9,6.3-1.5c0.6-0.2,1.3-0.1,1.9,0.1l8.1,3.8c0.6,0.2,1.2,0.2,1.8-0.1l8-4.6
			c0.3-0.1,0.4-0.5,0.3-0.8c-0.1-0.1-0.2-0.2-0.3-0.3l-6.3-4.6c-0.4-0.3-0.5-0.8-0.2-1.2l0.1-0.1c0.9-1,1.6-2,2.3-3.1
			c0.3-0.5,0.8-0.9,1.4-1l10.7-0.7c0.6,0,1-0.5,1-1.1v-1.2C205.6,369.6,205.6,369.7,205.7,369.8z"/>
		<path class="st3" d="M197.1,352.6v10.7l-3.1-0.2c-0.6-0.1-1.1-0.5-1.4-1c-0.6-1.1-1.4-2.1-2.3-3.1c-0.3-0.3-0.3-0.9,0-1.2l0.1-0.1
			l6.3-4.6C196.9,353,197.1,352.8,197.1,352.6L197.1,352.6z"/>
		<path class="st3" d="M132.5,359c-0.9,0.9-1.6,2-2.3,3.1c-0.3,0.5-0.8,0.9-1.4,1l-3.1,0.2v-10.8c0,0.2,0.1,0.4,0.3,0.5l6.3,4.6
			c0.4,0.3,0.5,0.8,0.2,1.2C132.6,358.9,132.6,359,132.5,359z"/>
		<path class="st4" d="M134.1,347.4l-8,4.6c-0.3,0.1-0.4,0.5-0.3,0.8c0.1,0.1,0.2,0.2,0.3,0.3l6.3,4.6c0.4,0.3,0.5,0.8,0.2,1.2
			l-0.1,0.1c-0.9,0.9-1.6,2-2.3,3.1c-0.3,0.5-0.8,0.9-1.4,1l-10.7,0.7c-0.6,0-1,0.5-1,1.1v6c0,0.6,0.4,1,1,1.1l10.7,0.7
			c0.6,0.1,1.1,0.5,1.4,1c0.6,1.1,1.4,2.2,2.3,3.1c0.3,0.3,0.3,0.9,0,1.2l-0.1,0.1l-6.4,4.4c-0.3,0.1-0.4,0.5-0.3,0.8
			c0.1,0.1,0.2,0.2,0.3,0.3l8,4.6c0.6,0.3,1.2,0.3,1.8,0.1l8.1-3.8c0.6-0.2,1.2-0.3,1.9-0.1c2.1,0.6,4.2,1.1,6.3,1.5
			c0.6,0.1,1,0.6,1.2,1.1l1,5.4c0.1,0.6,0.6,1,1.2,1h11.8c0.6,0,1.1-0.4,1.2-1l1-5.4c0.1-0.6,0.6-1,1.2-1.1c2.1-0.4,4.2-0.9,6.3-1.5
			c0.6-0.2,1.3-0.1,1.9,0.1l8.1,3.8c0.6,0.2,1.2,0.2,1.8-0.1l8-4.6c0.3-0.1,0.4-0.5,0.3-0.8c-0.1-0.1-0.2-0.2-0.3-0.3l-6.3-4.6
			c-0.4-0.3-0.5-0.8-0.2-1.2l0.1-0.1c0.9-0.9,1.6-2,2.3-3.1c0.3-0.5,0.8-0.9,1.4-1l10.7-0.7c0.6,0,1-0.5,1-1.1v-6c0-0.6-0.4-1-1-1.1
			l-10.5-0.6c-0.6-0.1-1.1-0.5-1.4-1c-0.6-1.1-1.4-2.1-2.3-3.1c-0.3-0.3-0.3-0.9,0-1.2l0.1-0.1l6.3-4.6c0.3-0.1,0.4-0.5,0.3-0.8
			c-0.1-0.1-0.2-0.2-0.3-0.3l-8-4.6c-0.5-0.3-1.2-0.3-1.8-0.1l-8.1,3.8c-0.6,0.2-1.2,0.3-1.9,0.1c-2.1-0.6-4.2-1.1-6.3-1.5
			c-0.6-0.1-1-0.6-1.2-1.1l-1-5.4c-0.1-0.6-0.6-1-1.2-1h-11.8c-0.6,0-1.1,0.4-1.2,1l-1,5.4c-0.1,0.6-0.6,1-1.2,1.1
			c-2.1,0.4-4.2,0.9-6.3,1.5c-0.6,0.2-1.3,0.1-1.9-0.1l-8.1-3.8C135.3,347.1,134.7,347.1,134.1,347.4z M174.9,360
			c7.5,4.3,7.5,11.3,0,15.6s-19.6,4.3-27.1,0s-7.5-11.3,0-15.6S167.5,355.7,174.9,360z"/>
		<path class="st2" d="M125.7,383c0-0.2,0.1-0.4,0.3-0.5l3.2-2.3v-7.6c-0.1-0.1-0.3-0.1-0.4-0.1l-10.7-0.7c-0.6,0-1-0.5-1-1.1v10.1
			c0,0.5,0.5,1,1,1h0.1l6.1,0.4l1.4,0.1L125.7,383z"/>
		<path class="st2" d="M144.6,384.3c-0.2,0-0.4,0.1-0.6,0.2l-8.1,3.8c-0.3,0.1-0.7,0.2-1,0.1v10.1c0.2,0,0.4,0,0.5,0l0,0l0,0
			c0.2,0,0.3,0,0.5-0.1l8.1-3.8c0.2-0.1,0.4-0.1,0.6-0.1V384.3z"/>
		<path class="st2" d="M154.5,392.7c-0.1-0.1-0.1-0.2-0.1-0.4l-1-5.4c0-0.1-0.1-0.3-0.2-0.4v10.1c0.1,0.1,0.1,0.3,0.2,0.4l1,5.3
			c0,0.1,0.1,0.2,0.1,0.3V392.7z"/>
		<path class="st5" d="M169.6,386.6c-0.1,0.1-0.1,0.3-0.2,0.4l-1,5.4c0,0.1-0.1,0.3-0.1,0.4v10.1c0.1-0.1,0.1-0.2,0.1-0.4l1-5.3
			c0-0.1,0.1-0.3,0.2-0.4V386.6z"/>
		<path class="st5" d="M188,388.4c-0.3,0-0.7,0-1-0.1l-8.1-3.8c-0.2-0.1-0.4-0.1-0.6-0.2v10.1c0.2,0,0.4,0.1,0.6,0.2l8.1,3.8
			c0.2,0.1,0.5,0.1,0.8,0.1h0.2V388.4z"/>
		<path class="st5" d="M204.7,371.8l-10.7,0.7c-0.2,0-0.3,0-0.4,0.1v7.6l3.2,2.3c0.2,0.1,0.3,0.3,0.3,0.5v-0.6l7.6-0.5
			c0.6,0,1-0.5,1-1.1v-11.1c0-0.1,0-0.1,0-0.2v1.2C205.7,371.3,205.2,371.8,204.7,371.8z"/>
		<path class="st2" d="M44.5,334.5c0,0.5,0,8.8,0,9.1c0,0.1,0,0.2,0.1,0.2l3.6,5c0.3,0.3,0.8,0.5,1.3,0.4l8.2-1.4
			c0.5-0.1,1,0,1.5,0.2c0.6,0.5,1.3,0.9,2,1.3c0,0,0,6.7,0,6.8c0,0.2,0.2,0.4,0.5,0.5l9,2.1c0.5,0,1.1-0.2,1.4-0.6l3.7-3.9
			c0.4-0.4,0.9-0.6,1.5-0.6c1.9,0.1,3.7,0.1,5.6,0c0.5,0,1,0.1,1.3,0.4l4.1,4.3c0.4,0.3,0.9,0.4,1.4,0.3l8.6-2
			c0.4-0.1,0.7-0.4,0.7-0.6v-6.7c0.6-0.3,1.2-0.7,1.7-1.1c0.5-0.3,1-0.5,1.6-0.5l8.5,1.4c0.5,0,1-0.2,1.3-0.6l3.2-4.5
			c0.1-0.1,0.2-0.3,0.2-0.5s0-2.8,0-6.5c0-0.1,0.1-0.1,0.1-0.2s0-12.2,0-12.9l0,0c0-0.1,0-0.2-0.1-0.2l-3.6-5
			c-0.3-0.3-0.8-0.5-1.3-0.4l-8.2,1.4c-0.5,0.1-1,0-1.5-0.2c-0.6-0.5-1.3-0.9-2-1.3c0-3.1,0-6.3,0-6.7l0,0c0-0.3-0.2-0.5-0.5-0.6
			l-8.9-2.1c-0.5-0.1-1.1,0.1-1.4,0.5l-3.7,3.9c-0.4,0.4-0.9,0.6-1.5,0.7c-1.9-0.1-3.7-0.1-5.6,0c-0.5,0-1-0.1-1.3-0.4l-4.1-4.3
			c-0.4-0.3-0.9-0.4-1.4-0.3l-8.6,2.1c-0.4,0.1-0.7,0.4-0.7,0.6l0,0v6.7c-0.6,0.3-1.2,0.7-1.7,1.1c-0.5,0.3-1,0.5-1.6,0.5l-8.5-1.4
			c-0.5,0-1,0.2-1.3,0.6l-3.2,4.5c-0.1,0.1-0.2,0.3-0.2,0.5l0,0c0,0.4,0,6.7,0,10.4l0,0C44.6,334.4,44.5,334.4,44.5,334.5
			L44.5,334.5L44.5,334.5z M91.1,335.6c-1.6,0.9-3.3,1.5-5.1,1.9c-6,1.4-12.7,0.6-17.1-1.9c-0.5-0.3-0.9-0.6-1.4-0.9
			c0.4-0.3,0.8-0.5,1.3-0.8c6.1-3.5,16.1-3.5,22.2,0c0.5,0.3,0.9,0.5,1.3,0.8C92,335.1,91.6,335.4,91.1,335.6z"/>
		<path class="st3" d="M97,317.1c0.7,0.3,1.3,0.7,2,1v-6.7c0,0.1,0,0.2-0.1,0.3l-2.2,4.3C96.5,316.4,96.6,316.9,97,317.1L97,317.1z"
			/>
		<path class="st5" d="M106.8,327.7c0.1,0.9,0.1,1.9,0,2.8c-0.1,0.4,0.2,0.8,0.6,1l7.8,2.4c0.2,0.1,0.4,0.3,0.4,0.5
			c0,0.1,0,2.5,0,2.5c0-0.1,0.1-0.1,0.1-0.2c0-4.4,0-11.8,0-12.4v-0.5c0,0.2-0.2,0.5-0.6,0.6l-7.3,2.3
			C107.2,326.8,106.8,327.2,106.8,327.7z"/>
		<path class="st5" d="M102,338.6v9.1c0.1,0,0.2,0,0.3,0l8.5,1.4c0.1,0,0.3,0,0.4,0V340c-0.1,0-0.3,0-0.4,0l-8.5-1.4
			C102.2,338.6,102.1,338.6,102,338.6z"/>
		<path class="st3" d="M99,349.3c0.6-0.3,1.2-0.7,1.7-1.1c0.4-0.3,0.8-0.4,1.3-0.5v-9.1c-0.5,0-0.9,0.2-1.3,0.5
			c-1.1,0.8-2.2,1.4-3.4,2c-0.5,0.2-0.8,0.7-0.6,1l2.3,4.6c0,0.1,0,0.1,0,0.2C99,347.2,99,349.3,99,349.3z"/>
		<path class="st5" d="M83.7,344.7v9.1c0.2,0.1,0.4,0.2,0.5,0.3l4.1,4.3c0.2,0.2,0.5,0.3,0.8,0.3v-9.1c-0.3,0-0.6-0.1-0.8-0.3
			l-4.1-4.3C84,344.9,83.9,344.8,83.7,344.7z"/>
		<path class="st3" d="M76.7,344.7v9.1c0.2-0.1,0.4-0.1,0.5-0.1c1.9,0.1,3.7,0.1,5.6,0c0.3,0,0.6,0,0.8,0.1v-9.1
			c-0.3-0.1-0.6-0.1-0.8-0.1c-1.9,0.1-3.7,0.1-5.6,0C77,344.6,76.9,344.6,76.7,344.7z"/>
		<path class="st5" d="M71.2,349.6v9.1c0.3-0.1,0.6-0.3,0.8-0.5l3.7-3.9c0.3-0.3,0.6-0.5,1-0.6v-9.1c-0.4,0.1-0.7,0.3-1,0.6
			l-3.7,3.9C71.8,349.3,71.5,349.5,71.2,349.6z"/>
		<path class="st2" d="M61.2,347v2.2l0,0v3.6c0,1.6,0,3.2,0,3.2c0,0.2,0.2,0.4,0.5,0.5l8.9,2.1c0.2,0.1,0.4,0.1,0.6,0v-9.1
			c-0.2,0.1-0.4,0.1-0.6,0l-9-2.1C61.4,347.4,61.2,347.2,61.2,347z"/>
		<path class="st5" d="M58.3,338.7v9.1c0.3,0,0.6,0.1,0.9,0.3c0.6,0.5,1.3,0.9,2,1.3c0,0,0-2.1,0-2.4c0-0.1,0-0.3,0.1-0.4l2.2-4.3
			c0.2-0.4,0.1-0.8-0.2-1l0,0c-1.4-0.6-2.7-1.4-4-2.3C58.9,338.8,58.6,338.7,58.3,338.7z"/>
		<path class="st2" d="M44.5,334.5c0,0.5,0,8.8,0,9.1c0,0.1,0,0.2,0.1,0.2l3.6,5c0.2,0.2,0.4,0.3,0.6,0.4V340
			c-0.2,0-0.5-0.2-0.6-0.4l-3.6-5C44.6,334.6,44.5,334.6,44.5,334.5z"/>
		<path class="st4" d="M98.5,310.8l-8.9-2.1c-0.5-0.1-1.1,0.1-1.4,0.5l-3.7,3.9c-0.4,0.4-0.9,0.6-1.5,0.7c-1.9-0.1-3.7-0.1-5.6,0
			c-0.5,0-1-0.1-1.3-0.4l-4.1-4.3c-0.4-0.3-0.9-0.4-1.4-0.3l-8.6,2.1c-0.4,0.1-0.7,0.4-0.7,0.6c0,0.1,0,0.1,0,0.2l2.3,4.6
			c0.2,0.3-0.1,0.8-0.6,1s-1.2,0.6-1.8,0.9s-1.2,0.7-1.7,1.1c-0.5,0.3-1,0.5-1.6,0.5l-8.5-1.4c-0.5,0-1,0.2-1.3,0.6l-3.2,4.5
			c-0.1,0.1-0.2,0.3-0.2,0.5l0,0c0,0.2,0.1,0.4,0.4,0.5l7.7,2.5c0.4,0.1,0.7,0.6,0.6,1c-0.1,0.9-0.1,1.9,0,2.8
			c0.1,0.4-0.3,0.8-0.8,1l-7.3,2.3c-0.2,0.1-0.4,0.2-0.6,0.4l0,0c0,0.1-0.1,0.1-0.1,0.2l0,0l0,0c0,0.1,0,0.2,0.1,0.2l3.6,5
			c0.3,0.3,0.8,0.5,1.3,0.4l8.2-1.4c0.5-0.1,1,0,1.5,0.3c1.3,0.9,2.6,1.6,4,2.3c0.4,0.2,0.5,0.7,0.3,1.1l0,0l-2.1,4.2
			c-0.2,0.3-0.2,0.7,0.1,0.9c0.1,0.1,0.2,0.1,0.3,0.1l8.9,2.1c0.5,0.1,1.1-0.1,1.4-0.5l3.7-3.9c0.4-0.4,0.9-0.6,1.5-0.6
			c1.9,0.1,3.7,0.1,5.6,0c0.5,0,1,0.1,1.3,0.4l4.1,4.3c0.4,0.3,0.9,0.4,1.4,0.3l8.6-2.1c0.5-0.1,0.8-0.5,0.6-0.8l-2.3-4.6
			c-0.2-0.3,0.1-0.8,0.6-1c1.2-0.6,2.3-1.2,3.4-2c0.5-0.3,1-0.5,1.6-0.5l8.5,1.4c0.5,0,1-0.2,1.3-0.6l3.2-4.5
			c0.1-0.1,0.2-0.3,0.2-0.5s-0.1-0.4-0.4-0.5l-7.7-2.5c-0.4-0.2-0.6-0.6-0.6-1c0.1-0.9,0.1-1.9,0-2.8c0-0.5,0.3-0.9,0.8-1l7.3-2.3
			c0.4-0.1,0.6-0.4,0.6-0.6l0,0c0-0.1,0-0.2-0.1-0.2l-3.6-5c-0.3-0.3-0.8-0.5-1.3-0.4l-8.2,1.4c-0.5,0.1-1,0-1.5-0.2
			c-0.6-0.5-1.3-0.9-2-1.3c-0.6-0.4-1.3-0.7-2-1c-0.4-0.2-0.5-0.7-0.3-1.1l0,0l2.2-4.2c0.1-0.1,0.1-0.2,0.1-0.3l0,0
			C99,311.2,98.8,310.9,98.5,310.8L98.5,310.8z M74,320.8c8-1.9,17.2,0.3,20.6,4.9c1.2,1.6,1.5,3.7,0.8,5.5c0,0.1,0,0.1-0.1,0.2
			l-0.1,0.2c0,0.1-0.1,0.1-0.1,0.2l0,0c-0.7,1.2-1.6,2.2-2.7,3c-0.4,0.3-0.9,0.6-1.3,0.9c-1.6,0.9-3.3,1.5-5.1,1.9
			c-6,1.4-12.7,0.6-17.1-1.9c-0.5-0.3-0.9-0.6-1.4-0.9c-0.8-0.6-1.5-1.3-2.1-2.1c-1.4-1.8-1.6-4.3-0.4-6.3l0.1-0.1l0.2-0.3
			c0.1-0.2,0.2-0.3,0.3-0.5L66,325l0.2-0.2l0.2-0.2C68.5,322.7,71.1,321.3,74,320.8z"/>
	</g>
</g>
<g id="freepik--Robot--inject-102">
	<g id="freepik--robot--inject-102">
		<path class="st4" d="M364.8,326.8c-0.4,0-0.8,0-1.1-0.1l-63.7-12c-3.3-0.6-5.4-3.8-4.8-7s3.8-5.4,7-4.8l0,0l63.7,12
			c3.3,0.5,5.5,3.6,5,6.9C370.4,324.8,367.8,326.9,364.8,326.8L364.8,326.8z"/>
		<path class="st2" d="M351.1,325H351c-2.1-0.4-3-2.9-2.4-6.3c0.7-3.7,3.1-7,6.3-6.4c0.3,0.1,0.5,0.4,0.5,0.7
			c-0.1,0.3-0.4,0.5-0.7,0.5c-2.5-0.5-4.4,2.5-4.9,5.5c-0.4,2.1-0.1,4.6,1.4,4.9c0.3,0.1,0.5,0.4,0.5,0.7
			C351.6,324.8,351.4,325,351.1,325L351.1,325z"/>
		<path class="st2" d="M340.5,323h-0.1c-1.1-0.2-2-1.1-2.3-2.1c-0.9-2.5,0-6.6,2-8.9c1-1.3,2.6-2,4.2-1.7c0.3,0.1,0.5,0.4,0.4,0.8
			c-0.1,0.3-0.3,0.4-0.6,0.4c-1.2-0.2-2.3,0.3-3,1.3c-1.7,1.9-2.5,5.6-1.8,7.7c0.2,0.7,0.7,1.2,1.3,1.4c0.3,0.1,0.5,0.4,0.5,0.7
			C341.1,322.8,340.9,323,340.5,323L340.5,323z"/>
		<path class="st2" d="M329.9,321h-0.1c-2.1-0.4-3-2.9-2.4-6.3c0.7-3.6,3.1-7,6.3-6.4c0.3,0.1,0.5,0.4,0.5,0.7
			c-0.1,0.3-0.4,0.5-0.7,0.5c-2.5-0.5-4.4,2.5-4.9,5.5c-0.4,2.1-0.1,4.6,1.5,4.9c0.3,0.1,0.5,0.4,0.5,0.7
			C330.4,320.8,330.2,321,329.9,321z"/>
		<path class="st2" d="M319.3,319h-0.1c-1.1-0.2-2-1.1-2.3-2.1c-0.9-2.5,0-6.6,2-8.9c1-1.3,2.6-2,4.2-1.7c0.3,0.1,0.5,0.4,0.5,0.7
			c-0.1,0.3-0.4,0.5-0.7,0.5c-1.2-0.2-2.4,0.3-3,1.3c-1.7,1.9-2.5,5.6-1.8,7.7c0.2,0.7,0.7,1.2,1.3,1.4c0.3,0.1,0.5,0.4,0.5,0.7
			C319.8,318.8,319.6,319,319.3,319L319.3,319z"/>
		<path class="st2" d="M308.7,317h-0.1c-2.1-0.4-3-2.9-2.4-6.3c0.7-3.6,3.1-7,6.3-6.4c0.3,0.1,0.5,0.4,0.4,0.8
			c-0.1,0.3-0.3,0.4-0.6,0.4c-2.4-0.5-4.4,2.5-4.9,5.5c-0.4,2.1-0.1,4.6,1.5,4.9c0.3,0.1,0.5,0.4,0.5,0.7l0,0
			C309.2,316.8,309,317,308.7,317z"/>
		<path class="st5" d="M295,308.8c0,2.9,2.1,5.3,4.9,5.9l63.7,12c0.4,0.1,0.8,0.1,1.1,0.1c2.9,0,5.4-2.1,5.9-4.9v-0.2L295,308.8z"/>
		<path class="st6" d="M433.4,274.4c-4.8-1.3-12.2-1.6-18.6,3.4c-5.1,4.1-11.1,22.6-13.1,29l-33.7-0.1l0,0c-1.9,0.2-3.6,1-4.9,2.3
			c-5.6,5.6-6.7,11.9-6.2,17.8c0.3,3.7,2.8,6.2,4.6,6.5l0,0c0.5,0.1,44.9,9.1,51.1,10.2c10.5,1.9,8.2,1.8,14.4-7
			c4.1-5.8,4.1-14.5,4.1-20.1s2.6-15.1,4.7-22.5S438.2,275.6,433.4,274.4z"/>
		<path class="st5" d="M426.7,274.5c-5.6,2.1-9.1,7-10.8,14.5s-0.2,13.8-1.8,24.6c-1.1,5.9-2.9,11.7-5.6,17c-2.2,4.1-5.2,5.8-11,4.8
			s-26.1-4-31.5-6.5c-3.1-1.4-5-4.5-4.9-7.8c3.5,0,6.9-0.6,10.1-1.9c4.5-1.9,4.2-4.1,4.1-5.3l-5.5-7.4h-1.7c-1.9,0.2-3.6,1-4.9,2.3
			c-5.6,5.6-6.7,11.9-6.2,17.8c0.3,3.7,2.8,6.2,4.6,6.5l0,0c0.5,0.1,44.9,9.1,51.1,10.2c10.5,1.9,8.2,1.8,14.4-7
			c4.1-5.8,4.1-14.5,4.1-20.1s2.6-15.1,4.7-22.5c0.7-2.5,1.2-5.1,1.4-7.8C433,279.1,428.8,273.7,426.7,274.5z"/>
		<path class="st4" d="M433.4,274.4l-0.9-0.2l0,0c-1-0.2-2.1-0.4-3.1-0.5c-7.2,1.4-10.6,7.8-11.6,16.5s-0.1,18.5-0.7,24.6
			s-4.4,15.9-4.2,22.4c0,2.4,0.7,4.8,2.1,6.8c7.8,1.4,6.4,0.7,12-7.5c4.1-5.8,4.1-14.5,4.1-20.1s2.6-15.1,4.7-22.5
			S438.2,275.6,433.4,274.4z"/>
		<path class="st5" d="M401.8,306.7c-1.4,5.5-2.5,11.1-3.2,16.7c-0.8-5.5-0.8-11.2,0-16.7H401.8z"/>
		<path class="st2" d="M423,284.4c-3.3,8.4-2,21.2-2.7,29.4s-4.5,19.8-3.9,24.2s2.8,7.4,6.1,5.5c1.8-1.3,3.2-3,4.2-5
			c1-1.9,1.7-4,2.2-5.2c2.3-5.5,2.3-12.2,2.3-16.9c0-5.7,2.6-15.1,4.7-22.5c1.6-5.5,2.1-13,0.3-16.9
			C434.7,273.7,426.6,275.1,423,284.4z"/>
		<path class="st3" d="M420.6,305.4c0,0.4,0,0.8,0,1.2l14-8.1c0.1-0.5,0.2-0.9,0.4-1.4L420.6,305.4z"/>
		<path class="st3" d="M436.4,277.6l-13.9,8c-0.1,0.5-0.3,0.9-0.4,1.4l14.6-8.4C436.6,278.3,436.5,277.9,436.4,277.6z"/>
		<path class="st3" d="M433,304.5l-12.6,7.3c0,0.4,0,0.8-0.1,1.2l12.3-7.1C432.8,305.3,432.9,304.9,433,304.5z"/>
		<path class="st3" d="M418,326.6l13.1-7.6c0-0.4,0-0.8,0-1.2l-12.9,7.4C418.2,325.8,418.1,326.2,418,326.6z"/>
		<path class="st3" d="M420.7,299.1v1.2l15.9-9.2c0.1-0.4,0.2-0.9,0.2-1.3L420.7,299.1z"/>
		<path class="st3" d="M419.7,318.4c-0.1,0.4-0.1,0.9-0.2,1.3l12-6.9c0-0.4,0.1-0.8,0.2-1.2L419.7,318.4z"/>
		<path class="st3" d="M437.3,284.5c0-0.4,0-0.8,0-1.2l-16.2,9.3c0,0.4-0.1,0.8-0.1,1.2L437.3,284.5z"/>
		<path class="st3" d="M429.1,332.7c0.2-0.5,0.3-1,0.5-1.5l-13,7.5c0.1,0.3,0.2,0.7,0.3,1L429.1,332.7z"/>
		<path class="st3" d="M430.7,325.6c0-0.4,0.1-0.8,0.1-1.2l-14,8.1c-0.1,0.4-0.1,0.9-0.2,1.3L430.7,325.6z"/>
		<path class="st6" d="M360.9,318.6c7.8,0.7,14.1-2.1,14.4-4.6c0,0,1.9-10.5-12-11.6s-14.3,9-14.3,9
			C349,313.9,353.1,317.9,360.9,318.6z"/>
		<path class="st7" d="M360.9,318.6c7.8,0.7,14.1-2.1,14.4-4.6c0,0,1.9-10.5-12-11.6s-14.3,9-14.3,9
			C349,313.9,353.1,317.9,360.9,318.6z"/>
		<path class="st6" d="M375.3,314c0.4-2.9-0.5-5.8-2.5-7.9c0.5,1,2.8,6.1-5.4,8.4c-9.1,2.6-17.4-3.1-17.8-5.3l0,0
			c-0.3,0.7-0.4,1.5-0.5,2.3c0,2.4,4.1,6.4,11.9,7.1S375,316.6,375.3,314z"/>
		<path class="st8" d="M375.3,314c0.4-2.9-0.5-5.8-2.5-7.9c0.5,1,2.8,6.1-5.4,8.4c-9.1,2.6-17.4-3.1-17.8-5.3l0,0
			c-0.3,0.7-0.4,1.5-0.5,2.3c0,2.4,4.1,6.4,11.9,7.1S375,316.6,375.3,314z"/>
		<path class="st4" d="M345.7,218.1c-0.2-2.2-1-6.7-4.8-8.5s-5.8,0-5.3,1.7s4.5,2.2,4.6,7.9C340.2,219.1,343.6,220.6,345.7,218.1z"
			/>
		<path class="st5" d="M342.4,217.2c-0.4-2.5-1.9-4.6-4-5.9c-1.2-0.9-1.4-1.9,0-2.4c-2.2-0.2-3.2,1.1-2.8,2.4
			c0.5,1.7,4.5,2.2,4.6,7.9c0.8,0.3,1.6,0.4,2.5,0.4C342.6,218.8,342.5,218,342.4,217.2z"/>
		<path class="st6" d="M337.5,222c2.5-5,10.2-5.6,16.3,0c9.1,8.5,10.6,16.9,6.7,21.3s-9.7,3.2-14.9-1.5
			C341.7,238.2,334,229.2,337.5,222z"/>
		<path class="st9" d="M360.5,243.3c1.2-1.4,1.9-3.2,2-5.1c-0.5,2.5-1.7,4.3-3.4,4.9c-2.1,0.7-5.8,1.9-11.9-4.5s-9.4-16.9-5.2-20.3
			c-1.9,0.5-3.5,1.8-4.4,3.6c-3.5,7.2,4.1,16.2,8.1,19.8C350.9,246.5,356.7,247.8,360.5,243.3z"/>
		<path class="st4" d="M324.4,241.3c-15.4-8.2-23.8-12.3-31.4-8.4l-3.7-7.1c11.7-6.1,23,0,38.8,8.4L324.4,241.3z"/>
		<path class="st2" d="M303.6,232.5c-0.3,0-0.5-0.2-0.5-0.5c0-0.1,0-0.2,0.1-0.3c0.8-1.2,1.2-2.8,0.9-4.2c-0.1-1.3-0.8-2.5-1.8-3.4
			c-0.2-0.1-0.3-0.5-0.2-0.7c0.1-0.2,0.5-0.3,0.7-0.2l0,0c1.2,1,2,2.5,2.2,4.1c0.3,1.7-0.1,3.5-1.1,5
			C303.9,232.4,303.7,232.5,303.6,232.5z"/>
		<path class="st2" d="M312,235.6c-0.3,0-0.5-0.2-0.5-0.5c0-0.1,0.1-0.2,0.1-0.3c1.1-1.2,1.7-2.9,1.6-4.6c0-1.2-0.4-2.4-1.2-3.3
			c-0.2-0.2-0.2-0.5-0.1-0.7c0.2-0.2,0.5-0.2,0.7-0.1c1,1.1,1.6,2.5,1.5,4c0.2,2-0.5,3.9-1.9,5.4C312.3,235.5,312.1,235.5,312,235.6
			z"/>
		<path class="st5" d="M293.1,233c7.6-3.9,16,0.2,31.4,8.4l1.6-2.9c-3.5-2.3-7.2-4.3-11-6c-10.8-4.9-15-5.4-23.4-2.3L293.1,233z"/>
		<circle class="st6" cx="283.8" cy="231" r="13"/>
		<circle class="st10" cx="283.8" cy="231" r="13"/>
		<circle class="st6" cx="271" cy="302.1" r="32.3"/>
		<circle class="st11" cx="271" cy="302.1" r="32.3"/>
		<path class="st5" d="M273,327.4c-8-0.9-11.8-5.8-11.8-5.8s28.1,0.1,41.5-26c-2-9.8-8.4-18.1-17.4-22.6l-37.8,6.7
			c-12.3,13-11.7,33.5,1.3,45.7c13,12.3,33.5,11.7,45.7-1.3c1.6-1.7,2.9-3.5,4.1-5.4C292.2,326.4,281.1,328.4,273,327.4z"/>
		<path class="st6" d="M302.4,284.8L302.4,284.8l-0.2-0.3c0-0.1-0.1-0.2-0.1-0.3c-3.6-7.7-6.5-15.8-8.8-24
			c-2.6-9.7-4.2-19.7-4.6-29.8h-74.5c0,27.9,5.4,55.4,17.6,76.6l0,0c2.1,4.1,6.5,7.5,13,9.5c16.1,4.9,39.1-0.5,51.3-12
			C303.1,297.9,305.1,290.6,302.4,284.8z"/>
		<path class="st9" d="M294.2,306.1c-5.2,3.8-17.1,8.6-25.9,8.5c-10.1-0.1-30.5-5.7-37.7-21.6s-9.6-45.2-9.6-45.2s8.6,4.9,28.1,4.5
			l-2.6-21.8h-32.4c0,27.9,5.4,55.4,17.6,76.6l0,0c2.1,4.1,6.5,7.5,13,9.5C260.1,321.1,281.6,316.5,294.2,306.1z"/>
		<path class="st2" d="M298.2,274.8c-0.1-0.3-0.2-0.5-0.3-0.8s-0.1-0.3-0.2-0.5v-0.1c-1.4-3.6-2.9-8.1-4.3-13.2
			c-1.6-5.8-2.8-11.7-3.5-17.6v-0.1c0.8,6.1-2.8,12.3-10.8,16.9c-9.6,5.5-23.1,7.4-35.4,5.7c1.4,13.8,6.1,28.3,13.7,39.2
			c12,0.9,26.1-3.6,34.1-11C297.9,287.1,300,280.4,298.2,274.8z"/>
		<path class="st4" d="M296.3,274.1c-0.1-0.3-0.2-0.5-0.3-0.8l-0.2-0.5v-0.1c-1.3-3.7-2.7-8.1-4-13.3c-1-3.8-1.8-7.7-2.4-11.6
			c-1.2,4.2-4.7,8.3-10.4,11.6c-9.6,5.5-23.1,7.4-35.4,5.7c1.3,12.8,5.4,26.1,12.1,36.7c11.7,0.7,25.7-2.4,33.4-9.4
			C295.7,286.3,298,279.7,296.3,274.1z"/>
		<path class="st3" d="M274.2,270.7l-3.8-1.7c0,0-13.7,3.2-22,2.4c0.1,4.1,0.6,8.2,1.6,12.2c1,3.8,2.5,7.5,4.5,10.8l4.3,2.1
			L274.2,270.7z"/>
		<path class="st2" d="M251.5,274.9c0,5.2,4.3,18.1,7.3,21.7c0,0,15.2-0.7,21.7-6.7c-0.2-1.7-6.4-19.2-6.4-19.2
			C270.2,273.6,258.3,274.9,251.5,274.9z"/>
		<circle class="st6" cx="275.8" cy="287.5" r="1.5"/>
		<circle class="st6" cx="271.2" cy="289" r="0.7"/>
		<path class="st6" d="M275.1,279.1c-0.1,0-0.1,0-0.2,0c-0.2,0-0.4-0.1-0.5-0.3c-0.1-0.3,0-0.5,0.3-0.7c1.4-0.6,2.1-2.1,1.7-3.5
			l-3.5-12.4c0.3-0.1,0.6-0.2,0.9-0.4l3.6,12.5C277.9,276.3,276.9,278.4,275.1,279.1z"/>
		<path class="st6" d="M269,281c-0.1,0-0.1,0-0.2,0c-0.2,0-0.4-0.1-0.5-0.3c-0.1-0.3,0-0.5,0.3-0.7c1.4-0.6,2.1-2.1,1.7-3.5
			l-3.5-12.5l1-0.2l3.5,12.5C271.9,278.2,270.9,280.3,269,281z"/>
		<path class="st6" d="M263,283c-0.1,0-0.1,0-0.2,0c-0.2,0-0.4-0.1-0.5-0.3c-0.1-0.3,0-0.5,0.3-0.7c1.4-0.6,2.1-2.1,1.7-3.5
			l-3.8-13.3l1-0.1l3.7,13.2C265.8,280.2,264.9,282.2,263,283z"/>
		<g class="st12">
			<path d="M275.1,279.1c-0.1,0-0.1,0-0.2,0c-0.2,0-0.4-0.1-0.5-0.3c-0.1-0.3,0-0.5,0.3-0.7c1.4-0.6,2.1-2.1,1.7-3.5l-3.5-12.4
				c0.3-0.1,0.6-0.2,0.9-0.4l3.6,12.5C277.9,276.3,276.9,278.4,275.1,279.1z"/>
			<path d="M269,281c-0.1,0-0.1,0-0.2,0c-0.2,0-0.4-0.1-0.5-0.3c-0.1-0.3,0-0.5,0.3-0.7c1.4-0.6,2.1-2.1,1.7-3.5l-3.5-12.5l1-0.2
				l3.5,12.5C271.9,278.2,270.9,280.3,269,281z"/>
			<path d="M263,283c-0.1,0-0.1,0-0.2,0c-0.2,0-0.4-0.1-0.5-0.3c-0.1-0.3,0-0.5,0.3-0.7c1.4-0.6,2.1-2.1,1.7-3.5l-3.8-13.3l1-0.1
				l3.7,13.2C265.8,280.2,264.9,282.2,263,283z"/>
		</g>
		<path class="st2" d="M279,259.4c-0.8,0.5-1.6,0.9-2.4,1.3c0.9,4.5,2.5,11.4,4.1,15.2c0,0,8-2.4,10.6-7.7c-1.7-5.3-3-10.7-4-16.2
			C285.2,255.1,282.3,257.6,279,259.4z"/>
		<path class="st6" d="M286.3,258.3c0,0.5-0.4,0.9-0.9,0.9s-0.9-0.4-0.9-0.9s0.4-0.9,0.9-0.9l0,0
			C285.9,257.4,286.3,257.8,286.3,258.3z"/>
		<path class="st6" d="M287.5,262.2c0,0.5-0.4,0.9-0.9,0.9s-0.9-0.4-0.9-0.9s0.4-0.9,0.9-0.9l0,0
			C287.1,261.4,287.5,261.7,287.5,262.2L287.5,262.2z"/>
		<path class="st6" d="M289.2,266.2c0,0.5-0.4,0.9-0.9,0.9s-0.9-0.4-0.9-0.9s0.4-0.9,0.9-0.9l0,0
			C288.9,265.4,289.2,265.8,289.2,266.2z"/>
		<path class="st6" d="M282.1,272.7c-0.2,0-0.4-0.1-0.5-0.3c-1.1-3.5-2.1-7.2-2.8-10.8c0-0.3,0.1-0.5,0.4-0.6c0.3,0,0.5,0.1,0.6,0.4
			c0.7,3.6,1.6,7.1,2.7,10.5c0.1,0.3,0,0.5-0.3,0.6C282.3,272.7,282.2,272.7,282.1,272.7z"/>
		<path class="st6" d="M284.9,271c-0.2,0-0.4-0.1-0.5-0.3c-1.1-3.5-2.1-7.2-2.8-10.8c0-0.3,0.1-0.5,0.4-0.6c0.3,0,0.5,0.1,0.6,0.4
			c0.7,3.6,1.6,7.1,2.7,10.6c0.1,0.3,0,0.5-0.3,0.7C285,271,284.9,271,284.9,271z"/>
		<path class="st6" d="M349.7,264.3c0,0-6.5,10.3-21.5,15.8c-8.4,3-17.4,4.3-26.3,3.7c-3.5-7.6-6.4-15.5-8.6-23.5
			c-1.6-5.8-2.8-11.7-3.5-17.6c0,0,11.6,1.5,23.9-6.2c14.1-8.8,17.4-18.3,17.4-18.3C339.8,230.4,346,245.9,349.7,264.3z"/>
		<path class="st10" d="M349.7,264.3c0,0-6.5,10.3-21.5,15.8c-8.4,3-17.4,4.3-26.3,3.7c-3.5-7.6-6.4-15.5-8.6-23.5
			c-1.6-5.8-2.8-11.7-3.5-17.6c0,0,11.6,1.5,23.9-6.2c14.1-8.8,17.4-18.3,17.4-18.3C339.8,230.4,346,245.9,349.7,264.3z"/>
		<path class="st10" d="M349.7,264.3c-3.8-18.4-9.9-33.9-18.7-46.3c-0.4,1.1-1,2.2-1.6,3.2c7.5,8.7,16.5,30.5,18,46
			C348.3,266.3,349,265.4,349.7,264.3z"/>
		<circle class="st2" cx="331.8" cy="249.8" r="2.6"/>
		<ellipse class="st6" cx="251.4" cy="230.7" rx="37.3" ry="21.5"/>
		<ellipse class="st13" cx="251.4" cy="230.7" rx="37.3" ry="21.5"/>
		<path class="st9" d="M225,215.5c-5.7,3.3-9.1,7.4-10.4,11.6c1,3.7,3.9,7.2,8.8,10c12.3,7.1,32.3,7.1,44.6,0s12.3-18.5,0.2-25.6
			C254.3,207.4,236.7,208.8,225,215.5z"/>
		<path class="st6" d="M300.3,273c-1.4-0.9-3.2-1.4-4.9-1.2c-2,0.2-3.9,1-5.4,2.4c-0.2,0.1-0.3,0.3-0.5,0.5c-2,0.5-3.7,1.7-4.9,3.3
			c-0.7,0.8-1.1,1.8-1.3,2.9c-0.6,0.8-1.1,1.7-1.2,2.7c-0.2,1.6,0.3,3.1,1.3,4.4c1.6,2.1,4,3.4,6.6,3.6c0.5-0.5,1-1,1.5-1.5
			c-1.9,0.1-3.8-0.4-5.3-1.5c-1.6-1-2.6-2.8-2.6-4.8v0.1c0.7,1.8,2.2,3.2,4,3.8c1.7,0.8,3.7,0.5,5.2-0.7c0.4-0.4,0.8-0.9,1-1.4
			c0.3,0,0.6,0,0.9,0c1.7,0.1,3.4-0.8,4.3-2.2c0.7-1.5,0.8-3.3,0.1-4.8c-0.5-1.2-1.4-2.3-2.5-2.9c-0.4-0.2-0.8-0.4-1.2-0.6
			c-1.2-0.5-2.4-0.7-3.6-0.6c1.2-0.9,2.6-1.4,4-1.5c0.8-0.1,1.6-0.1,2.3,0c0.7,0.1,1.4,0.3,2.1,0.7
			C300.6,273.7,300.6,273.2,300.3,273z M285.5,278.9c0.7-1.1,1.7-1.9,2.9-2.5c-0.3,0.6-0.5,1.2-0.6,1.9c-0.8,0.1-1.7,0.4-2.4,0.8
			C285.4,279,285.5,278.9,285.5,278.9L285.5,278.9z M288.9,286.5c-1.5-0.3-2.8-1.2-3.7-2.5c-0.5-0.8-0.8-1.8-0.6-2.8
			c0.8-0.9,1.9-1.5,3.1-1.7c0,1.6,0.7,3.1,1.8,4.1c0.8,0.7,1.7,1.2,2.7,1.5C291.5,286.3,290.2,286.8,288.9,286.5L288.9,286.5z
			 M290.9,283c-1.1-0.9-1.7-2.1-1.7-3.5c1,0.1,1.9,0.6,2.5,1.4c0.7,0.8,1,1.9,1,3C292.1,283.7,291.4,283.4,290.9,283L290.9,283z
			 M294.3,275.9c1,0.3,1.9,0.8,2.6,1.5c0.3,0.3,0.6,0.7,0.8,1.1c0.6,1.1,0.7,2.4,0.4,3.6c-0.4,1.1-1.4,1.9-2.6,2
			c-0.4,0.1-0.8,0.1-1.3,0c0.1-0.8,0-1.6-0.2-2.3c-0.5-1.7-1.8-3.1-3.6-3.6c-0.4-0.1-0.7-0.1-1.1-0.1c0.2-0.9,0.5-1.7,1.1-2.4
			C291.7,275.5,293,275.5,294.3,275.9L294.3,275.9z"/>
		<path class="st13" d="M300.3,273c-1.4-0.9-3.2-1.4-4.9-1.2c-2,0.2-3.9,1-5.4,2.4c-0.2,0.1-0.3,0.3-0.5,0.5c-2,0.5-3.7,1.7-4.9,3.3
			c-0.7,0.8-1.1,1.8-1.3,2.9c-0.6,0.8-1.1,1.7-1.2,2.7c-0.2,1.6,0.3,3.1,1.3,4.4c1.6,2.1,4,3.4,6.6,3.6c0.5-0.5,1-1,1.5-1.5
			c-1.9,0.1-3.8-0.4-5.3-1.5c-1.6-1-2.6-2.8-2.6-4.8v0.1c0.7,1.8,2.2,3.2,4,3.8c1.7,0.8,3.7,0.5,5.2-0.7c0.4-0.4,0.8-0.9,1-1.4
			c0.3,0,0.6,0,0.9,0c1.7,0.1,3.4-0.8,4.3-2.2c0.7-1.5,0.8-3.3,0.1-4.8c-0.5-1.2-1.4-2.3-2.5-2.9c-0.4-0.2-0.8-0.4-1.2-0.6
			c-1.2-0.5-2.4-0.7-3.6-0.6c1.2-0.9,2.6-1.4,4-1.5c0.8-0.1,1.6-0.1,2.3,0c0.7,0.1,1.4,0.3,2.1,0.7
			C300.6,273.7,300.6,273.2,300.3,273z M285.5,278.9c0.7-1.1,1.7-1.9,2.9-2.5c-0.3,0.6-0.5,1.2-0.6,1.9c-0.8,0.1-1.7,0.4-2.4,0.8
			C285.4,279,285.5,278.9,285.5,278.9L285.5,278.9z M288.9,286.5c-1.5-0.3-2.8-1.2-3.7-2.5c-0.5-0.8-0.8-1.8-0.6-2.8
			c0.8-0.9,1.9-1.5,3.1-1.7c0,1.6,0.7,3.1,1.8,4.1c0.8,0.7,1.7,1.2,2.7,1.5C291.5,286.3,290.2,286.8,288.9,286.5L288.9,286.5z
			 M290.9,283c-1.1-0.9-1.7-2.1-1.7-3.5c1,0.1,1.9,0.6,2.5,1.4c0.7,0.8,1,1.9,1,3C292.1,283.7,291.4,283.4,290.9,283L290.9,283z
			 M294.3,275.9c1,0.3,1.9,0.8,2.6,1.5c0.3,0.3,0.6,0.7,0.8,1.1c0.6,1.1,0.7,2.4,0.4,3.6c-0.4,1.1-1.4,1.9-2.6,2
			c-0.4,0.1-0.8,0.1-1.3,0c0.1-0.8,0-1.6-0.2-2.3c-0.5-1.7-1.8-3.1-3.6-3.6c-0.4-0.1-0.7-0.1-1.1-0.1c0.2-0.9,0.5-1.7,1.1-2.4
			C291.7,275.5,293,275.5,294.3,275.9L294.3,275.9z"/>
		<path class="st5" d="M282.1,283.3c0.3,0.8,0.9,1.6,1.6,2c-0.2-0.6-0.3-1.1-0.3-1.7v0.1c-0.3-1-0.4-2-0.2-3
			C282.7,281.5,282.3,282.4,282.1,283.3z"/>
		<path class="st5" d="M285,280.9c0-0.6,0.2-1.2,0.4-1.8c-0.4,0.7-0.7,1.4-0.8,2.2C284.7,281.1,284.9,281,285,280.9z"/>
		<path class="st5" d="M287.2,277.1c0.4-0.3,0.8-0.6,1.2-0.8c0.3-0.6,0.7-1.2,1.1-1.7c-0.3,0.1-0.7,0.2-1,0.3
			C287.9,275.6,287.4,276.3,287.2,277.1z"/>
		<path class="st5" d="M287.8,278.2c-0.2,0-0.4,0.1-0.6,0.1c-0.1,0.5-0.2,0.9-0.2,1.4c0.2-0.1,0.5-0.1,0.7-0.2
			C287.7,279.1,287.7,278.7,287.8,278.2z"/>
		<path class="st5" d="M293.7,285.5c-0.5-0.1-1-0.2-1.5-0.3c-0.2,0.3-0.4,0.5-0.6,0.7c0.4,0.3,0.9,0.5,1.4,0.6
			C293.3,286.1,293.5,285.8,293.7,285.5z"/>
		<path class="st5" d="M291.8,274.3c-0.5,0.4-1,0.9-1.5,1.4c0.2,0,0.4,0,0.5-0.1C291.1,275.2,291.4,274.7,291.8,274.3z"/>
		<path class="st5" d="M289.1,279.5l0.3,0.1c-0.1-0.5-0.1-0.9,0-1.4h-0.2C289.2,278.6,289.1,279,289.1,279.5z"/>
		<path class="st5" d="M294.1,283.6c-0.5,0.1-1,0.1-1.5,0c0,0.1,0,0.2,0,0.3c0.5,0.2,1,0.3,1.5,0.3
			C294.1,284,294.1,283.8,294.1,283.6z"/>
		<g id="freepik--Arm--inject-102">
			<path class="st6" d="M231.7,268.6c0,2.8-0.9,4.8-2.5,5.8c-0.4,0.2-0.8,0.4-1.2,0.5c-6.7,2.6-14.2-0.7-16.8-7.4
				c-0.6-1.5-0.9-3.1-0.9-4.7c0-4.1,1.9-7.9,5.1-10.3l0.1-0.1c0.2-0.1,0.3-0.2,0.5-0.3l0,0c1.6-1,3.9-0.8,6.5,0.6
				C227.6,255.7,231.7,262.8,231.7,268.6z"/>
			<path class="st10" d="M231.7,268.6c0,2.8-0.9,4.8-2.5,5.8c-0.4,0.2-0.8,0.4-1.2,0.5c-6.7,2.6-14.2-0.7-16.8-7.4
				c-0.6-1.5-0.9-3.1-0.9-4.7c0-4.1,1.9-7.9,5.1-10.3l0.1-0.1c0.2-0.1,0.3-0.2,0.5-0.3l0,0c1.6-1,3.9-0.8,6.5,0.6
				C227.6,255.7,231.7,262.8,231.7,268.6z"/>
			<path class="st9" d="M231.7,268.6c0-4.5-2.4-9.8-5.9-13.3c2.6,3.2,5,11.4,1.9,15.6s-14.7,1.8-17-5.1c1.7,7,8.7,11.3,15.7,9.6
				c0.6-0.1,1.2-0.3,1.7-0.5c0.4-0.2,0.8-0.3,1.2-0.5C230.7,273.4,231.7,271.4,231.7,268.6z"/>
			<path class="st6" d="M216.5,348.4c-0.5,1.9-0.5,3.9-0.1,5.8c0.2,0.8,1,1.5,1.4,1.1l7.9-8.1l6.3,1.6l1.8,6.3l-8.3,8.5
				c-0.3,0.3-0.3,0.6,0.1,0.7l0.6,0.2c7.1,1.7,14.2-2.6,16-9.7c1.2-5-0.6-10.3-4.6-13.5L248,298c7.1-1.4,11.8-8.4,10.4-15.5
				c-0.2-0.8-1-1.5-1.4-1.1l-7.9,8.1l-6.3-1.6l-1.8-6.3l8.3-8.5c0.3-0.3,0.3-0.6,0-0.7l-0.6-0.2c-7.1-1.8-14.2,2.6-16,9.6
				c-1.2,5,0.6,10.3,4.6,13.5l-10.4,43.3C221.7,339.6,217.7,343.4,216.5,348.4z"/>
			<path class="st14" d="M216.5,348.4c-0.5,1.9-0.5,3.9-0.1,5.8c0.2,0.8,1,1.5,1.4,1.1l7.9-8.1l6.3,1.6l1.8,6.3l-8.3,8.5
				c-0.3,0.3-0.3,0.6,0.1,0.7l0.6,0.2c7.1,1.7,14.2-2.6,16-9.7c1.2-5-0.6-10.3-4.6-13.5L248,298c7.1-1.4,11.8-8.4,10.4-15.5
				c-0.2-0.8-1-1.5-1.4-1.1l-7.9,8.1l-6.3-1.6l-1.8-6.3l8.3-8.5c0.3-0.3,0.3-0.6,0-0.7l-0.6-0.2c-7.1-1.8-14.2,2.6-16,9.6
				c-1.2,5,0.6,10.3,4.6,13.5l-10.4,43.3C221.7,339.6,217.7,343.4,216.5,348.4z"/>
			<path class="st6" d="M243.1,315.6c-1.9,1.4-4.3,1.7-6.4,0.7c-1.6-0.6-3-1.8-3.8-3.3l-5.4,22.7c3.4,2,7.5,2.4,11.2,1l4.9-20.6
				C243.4,315.9,243.3,315.8,243.1,315.6z"/>
			<path class="st8" d="M243.1,315.6c-1.9,1.4-4.3,1.7-6.4,0.7c-1.6-0.6-3-1.8-3.8-3.3l-5.4,22.7c3.4,2,7.5,2.4,11.2,1l4.9-20.6
				C243.4,315.9,243.3,315.8,243.1,315.6z"/>
			<path class="st4" d="M223.3,319.1c-8.4,0.6-20.6-3.9-26.2-9.2c-2.9-2.8-3.6-6.8-2-12.5c3.1-11,16.2-26.2,22.5-29.2l0,0
				c0.6-0.4,1-1.1,0.9-1.9c-0.1-2-1.2-3.8-2.8-4.9c-0.6-0.4-1.3-0.5-1.9-0.2l0,0c-8.7,4.1-23.3,21.5-26.9,34.3
				c-2.4,8.6-1,15.5,4.1,20.4c6.6,6.4,20.2,11.3,30.6,11.3c0.8,0,1.5,0,2.2-0.1L223.3,319.1z"/>
			<path class="st2" d="M210.6,274.2L210.6,274.2c-0.3,0-0.6-0.3-0.6-0.6l0,0c-0.1-1.4-0.8-2.6-1.9-3.5c-1-0.9-2.3-1.4-3.6-1.2
				c-0.3,0.1-0.6-0.1-0.7-0.5l0,0c-0.1-0.3,0.1-0.6,0.5-0.7c3.5-0.2,6.6,2.4,7,5.9C211.2,274,211,274.3,210.6,274.2
				C210.6,274.3,210.6,274.3,210.6,274.2z"/>
			<path class="st2" d="M205.6,279.8c-0.3,0-0.5-0.2-0.6-0.4c-0.8-2.3-4.4-4.3-6.5-3.8c-0.3,0.1-0.6-0.1-0.7-0.4
				c-0.1-0.3,0.1-0.6,0.4-0.7c2.8-0.7,6.9,1.7,7.9,4.5c0.1,0.3,0,0.6-0.3,0.8l0,0C205.8,279.7,205.7,279.8,205.6,279.8z"/>
			<path class="st2" d="M200.2,287.2c-0.2,0-0.5-0.1-0.6-0.4c-1.2-2.5-3.9-3.9-6.6-3.6c-0.3,0.1-0.6-0.1-0.7-0.5l0,0
				c-0.1-0.3,0.1-0.6,0.4-0.7c3.3-0.5,6.6,1.2,8,4.3c0.1,0.3,0,0.7-0.3,0.8l0,0C200.3,287.2,200.3,287.2,200.2,287.2z"/>
			<path class="st2" d="M196.2,294.7c-0.3,0-0.5-0.2-0.6-0.4c-0.3-0.7-1.6-1.4-3.2-1.7s-3.5-0.1-4.4,1c-0.2,0.3-0.6,0.3-0.8,0.1l0,0
				c-0.3-0.2-0.3-0.6-0.1-0.9c1.1-1.3,3.1-1.9,5.6-1.5c1.6,0.3,3.7,1.1,4.2,2.5c0.1,0.3,0,0.6-0.3,0.8l0,0
				C196.4,294.7,196.3,294.7,196.2,294.7z"/>
			<path class="st2" d="M185.7,304.7c-0.1,0-0.1,0-0.2,0c-0.3-0.1-0.5-0.5-0.4-0.8c0.8-2.2,3.5-3.3,5.9-3.4c1.9-0.1,3.3,0.5,3.8,1.5
				c0.1,0.3,0,0.7-0.3,0.8l0,0c-0.3,0.1-0.7,0-0.8-0.3c-0.2-0.5-1.3-0.8-2.6-0.8c-2,0.1-4.2,1-4.8,2.5
				C186.2,304.5,186,304.7,185.7,304.7z"/>
			<path class="st2" d="M188.9,314.1L188.9,314.1c-0.3,0-0.6-0.3-0.6-0.6l0,0c0.2-2.6,2.9-4.3,5.1-4.9c0.6-0.2,2.8-0.7,3.6,0.4
				c0.2,0.3,0.1,0.7-0.1,0.9c-0.3,0.2-0.7,0.1-0.9-0.1c-0.1-0.1-0.9-0.3-2.4,0.1c-1.8,0.5-4,1.8-4.1,3.9
				C189.5,313.9,189.2,314.1,188.9,314.1z"/>
			<path class="st2" d="M197.4,321.1c-0.2,0-0.4-0.1-0.5-0.3c-0.9-1.8-0.5-4,0.9-5.4c1.5-1.7,3.7-2.6,5.2-2.1
				c0.3,0.1,0.4,0.5,0.3,0.8c-0.1,0.3-0.4,0.4-0.7,0.3c-1.1-0.4-2.8,0.4-3.9,1.7c-1.1,1.1-1.4,2.7-0.8,4.1c0.2,0.3,0,0.7-0.3,0.8
				l0,0C197.6,321.1,197.5,321.1,197.4,321.1z"/>
			<path class="st2" d="M205.5,324.8c-0.2,0-0.5-0.1-0.6-0.4c-0.7-2-0.4-4.2,0.8-5.9c0.7-1.3,1.9-2.2,3.3-2.4c0.3,0,0.6,0.2,0.6,0.6
				l0,0c0,0.3-0.2,0.6-0.5,0.6l0,0c-1,0.3-1.8,0.9-2.3,1.9c-1,1.4-1.2,3.2-0.7,4.8c0.1,0.3,0,0.7-0.3,0.8l0,0
				C205.7,324.7,205.6,324.7,205.5,324.8z"/>
			<path class="st2" d="M213.8,327c-0.2,0-0.4-0.1-0.5-0.3c-0.8-1.8-0.7-3.9,0.1-5.8c0.4-1.3,1.4-2.3,2.6-2.9c0.3-0.1,0.7,0,0.8,0.3
				s0,0.7-0.3,0.8c0,0,0,0-0.1,0c-0.9,0.5-1.6,1.2-1.9,2.2c-0.7,1.5-0.7,3.2-0.1,4.8c0.1,0.3,0,0.7-0.3,0.8l0,0
				C213.9,327,213.8,327,213.8,327z"/>
			<path class="st5" d="M188.2,297.6c2.8-12.8,13.4-23.6,18.9-28.7c3.5-3.3,7.5-5.4,10.2-5.8c-0.4-0.6-1-1.2-1.7-1.6
				c-0.6-0.4-1.3-0.5-1.9-0.2l0,0c-8.7,4.1-23.3,21.5-26.9,34.3c-2.4,8.6-1,15.5,4.1,20.4C191,315.9,185.3,310.4,188.2,297.6z"/>
			<path class="st5" d="M223.3,319.1c-8.4,0.6-20.6-3.9-26.2-9.2c-1.4-1.3-2.3-3.1-2.7-5h-0.2c0.6,4.1,1.2,8.9,12.8,13.6
				c5.2,2.1,10.7,3,16.3,2.7L223.3,319.1z"/>
			<path class="st4" d="M228.6,312.1c-0.4-3.6,0.1-7.7,1.7-10.2s4.1-4.2,5.3-2.2c0.8,1.4-0.9,3.5-1.7,6.1c-0.4,1.6-0.4,3.2-0.2,4.8
				L228.6,312.1z"/>
			<path class="st5" d="M233.9,305.8c0.8-2.6,2.5-4.7,1.7-6.1c-0.2-0.4-0.6-0.7-1-0.8l0,0c0.7,0.9-0.9,2.7-2.1,4.9
				c-1,2.4-1.4,4.9-1,7.5l2.2-0.7C233.4,309,233.5,307.4,233.9,305.8z"/>
			<path class="st6" d="M247.6,325.4c-1.6,6.9-8.4,11.3-15.4,9.7c-6.9-1.6-11.3-8.4-9.7-15.4c1.2-5.3,5.6-9.3,11.1-9.9
				c0.1,1.7,2,3.7,4.1,4.4c2.1,0.9,4.6,0.7,6.4-0.7C247.3,316.6,248.6,321.1,247.6,325.4z"/>
			<path class="st6" d="M247.6,325.4c-1.6,6.9-8.4,11.3-15.4,9.7c-6.9-1.6-11.3-8.4-9.7-15.4c1.2-5.3,5.6-9.3,11.1-9.9
				c0.1,1.7,2,3.7,4.1,4.4c2.1,0.9,4.6,0.7,6.4-0.7C247.3,316.6,248.6,321.1,247.6,325.4z"/>
			<path class="st9" d="M247.6,325.4c0.1-0.4,0.2-0.9,0.2-1.3c-1.8,3.6-6.1,8.5-14.6,7.1c-8.7-1.5-10.6-12-9.4-14.8
				c-0.6,1.1-1,2.2-1.3,3.4c-1.7,6.9,2.5,13.9,9.3,15.6c6.9,1.7,13.9-2.5,15.6-9.3C247.5,325.8,247.6,325.6,247.6,325.4z"/>
			<path class="st4" d="M247.7,320c4.4-1.8,5.8-5.8,5.1-9.8s-6.5-5.6-6.5-5.6l-1.1,4.7c0,0,2.9,1.1,2.7,3.1c-0.2,1.3-1.1,2.4-2.2,3
				c-0.8,1.8,0,3.8,1.7,4.6C247.5,319.9,247.6,320,247.7,320z"/>
			<path class="st5" d="M246.3,304.5l-1.1,4.7c0,0,2.9,1.1,2.7,3.1c-0.2,1.3-1.1,2.4-2.2,3c-0.6,1.4-0.2,3,0.9,4l0,0
				c-0.5-1.6,0.5-2.3,2.1-4s0.9-4.5-0.1-6.3c-0.6-1.2-0.7-2.5-0.3-3.8C247.7,305,247,304.7,246.3,304.5z"/>
			<path class="st4" d="M247.1,327.1c3.4,1,7.5-0.4,8.1-3.2s-0.4-5.1-3.6-7c-1,1.4-2.3,2.5-3.9,3.1l0.2,1.5
				C246.4,323,246.1,325.3,247.1,327.1z"/>
			<path class="st5" d="M251.6,317c-1,1.4-2.3,2.5-3.9,3.1l0.2,1.5h4.2c0,0-1.1-0.4-0.8-1.1s2.1-0.4,2.9,0.7c1,1.2,1.1,3,0.2,4.3
				c0.4-0.4,0.6-1,0.8-1.5C255.7,321.1,254.8,318.8,251.6,317z"/>
			<path class="st4" d="M242.5,333.1c1.3,1.2,2.9,2.1,4.6,2.7c1.3,0.5,3.6,0.5,4.8-0.8s0.4-2.8-0.5-3.4c-1.6-1.1-3.2-2-5-2.8
				C246.3,328.8,242.8,328.8,242.5,333.1z"/>
			<path class="st5" d="M251.3,331.6c-1.6-1.1-3.2-2-5-2.8c-1.2,0.1-2.2,0.6-2.9,1.5c0.8-0.8,3.3,0.6,5.3,1.9s3.7,1.9,2.8,3.1
				c0.1-0.1,0.2-0.2,0.4-0.3C253.2,333.6,252.2,332.2,251.3,331.6z"/>
		</g>
		<path class="st4" d="M345.5,230c1.3-0.6,2-2.1,1.5-3.4c-0.8-2.4-3.7-3.1-3.7-3.1s-5.4-1.5-9.5,1s-4.2,7.7-4,9.4
			c0.2,1.3,1.3,2.2,2.6,2.1c0.9-0.1,1.6-0.7,1.9-1.6c1-2.1,0.9-4.9,4.4-5.9C341.4,227.6,343.8,230.7,345.5,230z"/>
		<path class="st5" d="M343.8,227.8c-2.9-1.2-5.9-2.7-8.4,0s-1.9,5.3-2.9,6.4s-2.2,0.9-2.8,0c0.4,1.2,1.8,1.9,3,1.4
			c0.7-0.2,1.2-0.8,1.4-1.4c1-2.1,0.9-4.9,4.4-5.9c2.8-0.8,5.2,2.4,6.9,1.6c1.3-0.6,2-2.1,1.5-3.4
			C347,227.8,346.1,228.7,343.8,227.8z"/>
		<path class="st4" d="M351.1,241.7c0.7-0.7,1.8-0.8,2.6-0.2c0.9,0.4,1.6,1.3,1.7,2.3c0,0,0.1,3.5-3.7,7.2c-2.4,2.2-5.7,3.2-9,2.8
			c-2.5-0.7-3-3.5,0-4.2c2.2-0.5,4.2-0.4,6.5-3.1C350.6,244.8,350.6,242.7,351.1,241.7z"/>
		<path class="st5" d="M350.1,249.8c-3.9,3-6.3,2.6-7.7,2.3s-1.4-1.8-0.8-2.1c-1.7,1-1.1,3.2,1.1,3.8c3.3,0.4,6.6-0.6,9-2.8
			c3.8-3.6,3.7-7.2,3.7-7.2c-0.1-1-0.7-1.9-1.7-2.3C354.4,242.4,354.3,246.6,350.1,249.8z"/>
		<path class="st4" d="M347.3,231.6c1.5-0.1,2.9,0.7,3.6,2c1.9,2.9-0.3,4.1-0.3,4.1c-1.5,0.2-3.4-0.8-6.4,0.4
			c-3.8,1.5-4.2,4.4-5.1,6.6c-1,2.5-4.9,1.1-4.2-2.8s2.2-6.5,4.8-8.1C341.9,232.5,344.6,231.6,347.3,231.6z"/>
		<path class="st5" d="M348.5,235.4c-2.7-0.1-6.6,0.3-8.4,3.1c-1.2,1.9-1.5,4.6-2.6,5.4c-0.7,0.6-1.8,0.5-2.4-0.2
			c-0.2-0.2-0.3-0.5-0.4-0.8c0.1,3.2,3.4,4.2,4.3,1.9s1.3-5.1,5.1-6.6c3-1.2,4.9-0.3,6.4-0.4c0,0,2.1-1.1,0.6-3.8
			C351.6,235,351.2,235.6,348.5,235.4z"/>
		<path class="st4" d="M280.5,322.5L280.5,322.5c-2.2-2.5-6-2.8-8.5-0.6c-2.5,2.2-2.8,6-0.6,8.5l0,0l38.3,44.4l9.1-7.9L280.5,322.5z
			"/>
		<path class="st2" d="M277.3,337.8c-0.2,0-0.3-0.1-0.5-0.2c-2.5-2.7-2.3-6.9,0.4-9.3c2.7-2.5,6.9-2.3,9.3,0.4
			c0.1,0.1,0.2,0.2,0.2,0.3c0.2,0.2,0.2,0.6,0,0.8s-0.6,0.2-0.8,0l0,0c-1.9-2.3-5.3-2.7-7.6-0.9c-2.3,1.9-2.7,5.3-0.9,7.6
			c0.1,0.1,0.2,0.2,0.3,0.3c0.2,0.2,0.2,0.6-0.1,0.8l0,0C277.5,337.7,277.4,337.8,277.3,337.8z"/>
		<path class="st2" d="M283.8,345.3c-0.2,0-0.3-0.1-0.5-0.2c-2.5-2.7-2.3-6.9,0.4-9.3c2.7-2.5,6.9-2.3,9.3,0.4
			c0.1,0.1,0.2,0.2,0.2,0.3c0.2,0.3,0.2,0.6-0.1,0.9s-0.6,0.2-0.9-0.1l0,0c-1.9-2.3-5.4-2.5-7.6-0.6s-2.5,5.4-0.6,7.6
			c0.2,0.2,0.2,0.6-0.1,0.8l0,0C284.1,345.3,283.9,345.3,283.8,345.3z"/>
		<path class="st2" d="M290.3,352.8c-0.2,0-0.3-0.1-0.5-0.2c-2.5-2.7-2.3-6.9,0.4-9.3c2.7-2.5,6.9-2.3,9.3,0.4
			c0.1,0.1,0.2,0.2,0.2,0.3c0.2,0.3,0.2,0.6-0.1,0.8c-0.2,0.2-0.6,0.2-0.8-0.1c-1.9-2.3-5.3-2.7-7.6-0.9c-2.3,1.9-2.7,5.3-0.9,7.6
			c0.1,0.1,0.2,0.2,0.3,0.3c0.2,0.2,0.2,0.6-0.1,0.8l0,0C290.6,352.8,290.4,352.8,290.3,352.8z"/>
		<path class="st2" d="M296.8,360.4c-0.2,0-0.3-0.1-0.5-0.2c-2.5-2.7-2.3-6.9,0.4-9.3c2.7-2.5,6.9-2.3,9.3,0.4
			c0.1,0.1,0.2,0.2,0.2,0.3c0.2,0.3,0.2,0.6-0.1,0.9s-0.6,0.2-0.9-0.1l0,0c-1.9-2.3-5.4-2.5-7.6-0.6s-2.5,5.4-0.6,7.6
			c0.2,0.2,0.2,0.6-0.1,0.8l0,0C297.1,360.3,296.9,360.4,296.8,360.4z"/>
		<path class="st2" d="M303.3,367.9c-0.2,0-0.3-0.1-0.5-0.2c-2.5-2.7-2.3-6.9,0.4-9.3c2.7-2.5,6.9-2.3,9.3,0.4
			c0.1,0.1,0.2,0.2,0.2,0.3c0.2,0.3,0.2,0.6-0.1,0.9s-0.6,0.2-0.9-0.1l0,0c-1.9-2.3-5.3-2.7-7.6-0.9c-2.3,1.9-2.7,5.3-0.9,7.6
			c0.1,0.1,0.2,0.2,0.3,0.3c0.2,0.2,0.2,0.6-0.1,0.8l0,0C303.6,367.9,303.4,367.9,303.3,367.9z"/>
		<path class="st5" d="M275.9,320.4c-3.3,0-6,2.7-6,6c0,1.5,0.5,2.9,1.5,4l0,0l38.3,44.4l3.8-3.3c-11.7-13.1-30.7-34.4-35.8-40.2
			C270.1,322.6,273.2,321.1,275.9,320.4z"/>
		<path class="st6" d="M380.3,372.9c0,0-11.2-9.8-20.2-3.4c-5.5,3.9-10.3,8.6-14.4,14l-24.2-21.4l0,0c-1.5-1.3-4.1-1.3-6.7,0.2
			c-4.5,2.6-8.1,8.9-8.1,14.1c-0.1,1.4,0.3,2.9,1.1,4.1l0,0c0,0,26.6,37.2,31.2,43s10.3,8.8,18,5.3s10-13.6,10.9-20.4
			s9.6-16.4,12-22.5C382.3,379.2,381.7,375.2,380.3,372.9z"/>
		<path class="st5" d="M371.5,370.2c-4.3,0.4-14.6,5.7-17.6,17c-1.1,4.3-2.5,8.6-4.2,12.7c-1.4,3.1-3.3,6-5.7,8.4
			c-3.5,3.8-7.8,1.2-11.5-1.9s-14.1-16.7-17.6-22.6c-2.6-4.3-3.4-7.5-2.7-10.6c0.2,0.3,0.5,0.6,0.7,0.9c3.5,3.8,10.1,7,15.1,3.1
			c2.5-1.9,2.7-4.8,1.9-7.7l-8.5-7.5c-1.5-1.3-4.1-1.3-6.7,0.2c-0.3,0.2-0.5,0.3-0.8,0.5l-0.3,0.2l-0.5,0.4l-0.3,0.3l-0.4,0.4
			l-0.3,0.3l-0.4,0.4l-0.4,0.4l-0.3,0.4c-0.1,0.1-0.2,0.3-0.4,0.4l-0.3,0.4c-0.1,0.1-0.2,0.3-0.4,0.5s-0.1,0.2-0.2,0.3
			c-2,2.8-3.1,6-3.3,9.4c-0.1,1.4,0.3,2.9,1.1,4.1l0,0c0,0,26.6,37.2,31.2,43s10.3,8.8,18,5.3s10-13.6,10.9-20.4
			c0.7-5,5.6-11.5,9.1-17.1L371.5,370.2z"/>
		<path class="st4" d="M379.8,385.8c2.5-6.6,1.9-10.7,0.5-12.9c-1.5-1.2-3.1-2.3-4.7-3.1c-6.2-0.8-13.8,6.5-16.6,11.1
			s-4.3,10.3-6.4,17.8c-1.8,6.6-6.3,10.4-8.9,16.6c-1.9,4.5-2.3,8-1,12c3.9,3,8.5,4,14.2,1.4c7.7-3.5,10-13.6,10.9-20.4
			S377.5,392,379.8,385.8z"/>
		<path class="st2" d="M360.7,383.5c-4,7.1-4.8,17-8.2,22.8s-8.5,12.2-7.9,17.7c0.4,3.6,1.6,5.5,4,6.1c1.3,0.2,2.6,0.2,3.9,0
			l0.5-0.1c1.3-0.3,2.6-0.7,3.8-1.2c7.7-3.5,10-13.6,10.9-20.4s9.6-16.4,12-22.5c2.5-6.6,1.9-10.7,0.5-12.9
			C375.4,369.8,366,374.1,360.7,383.5z"/>
		<path class="st5" d="M344.1,382.1c-5.4,5.1-6.8,13-6.8,13c2.6-4,5.4-7.9,8.4-11.6L344.1,382.1z"/>
		<path class="st3" d="M354.5,401.7c-0.1,0.4-0.3,0.8-0.5,1.2l16.7-2.1c0.2-0.4,0.5-0.9,0.8-1.3L354.5,401.7z"/>
		<path class="st3" d="M351.7,407.7c-0.3,0.4-0.5,0.9-0.8,1.3l17.3-2.2c0.1-0.4,0.2-0.8,0.4-1.2L351.7,407.7z"/>
		<path class="st3" d="M345.2,426.7l16.8-2.1c0.3-0.4,0.6-0.9,1-1.3l-18.1,2.3C345,425.9,345.1,426.3,345.2,426.7z"/>
		<path class="st3" d="M345.1,419.9c-0.1,0.4-0.2,0.8-0.3,1.2l20.6-2.6c0.2-0.4,0.3-0.8,0.4-1.2L345.1,419.9z"/>
		<path class="st3" d="M347.9,413.9c-0.2,0.4-0.5,0.9-0.7,1.3l19.9-2.5c0.1-0.4,0.2-0.8,0.2-1.2L347.9,413.9z"/>
		<path class="st3" d="M365.1,377.7c-0.4,0.4-0.8,0.9-1.2,1.3l17.6-2.2c0-0.4-0.1-0.8-0.1-1.2L365.1,377.7z"/>
		<path class="st3" d="M360.5,383.9c-0.2,0.4-0.4,0.8-0.6,1.3l21-2.7c0.1-0.4,0.2-0.8,0.3-1.2L360.5,383.9z"/>
		<path class="st3" d="M358,389.9c-0.1,0.4-0.3,0.8-0.4,1.2l20.9-2.7c0.2-0.4,0.5-0.9,0.7-1.3L358,389.9z"/>
		<path class="st3" d="M356.3,395.8c-0.1,0.4-0.2,0.8-0.3,1.2l18.7-2.4l0.9-1.3L356.3,395.8z"/>
		<path class="st6" d="M313.1,357c-5.5,3.8-2.8,11.9,0.6,15.7s10.1,7,15.1,3.1c4.6-3.5,1.3-10.9-1.8-14.6
			C323.7,357.2,317.5,353.9,313.1,357z"/>
		<path class="st7" d="M313.1,357c-5.5,3.8-2.8,11.9,0.6,15.7s10.1,7,15.1,3.1c4.6-3.5,1.3-10.9-1.8-14.6
			C323.7,357.2,317.5,353.9,313.1,357z"/>
		<path class="st6" d="M331.1,371c-0.4,2.7-4.6,6.3-11.6,0.8s-7.2-13.6-4.9-15.6c-0.5,0.2-1,0.5-1.5,0.8c-5.5,3.8-2.8,11.9,0.6,15.7
			s10.1,7,15.1,3.1C330.3,374.7,331.2,372.9,331.1,371z"/>
		<path class="st8" d="M331.1,371c-0.4,2.7-4.6,6.3-11.6,0.8s-7.2-13.6-4.9-15.6c-0.5,0.2-1,0.5-1.5,0.8c-5.5,3.8-2.8,11.9,0.6,15.7
			s10.1,7,15.1,3.1C330.3,374.7,331.2,372.9,331.1,371z"/>
		<path class="st4" d="M258.9,228.4v-24.5h-15v24.5l0,0c0.1,1.3,1,2.5,2.2,3.1c3.3,1.7,7.3,1.7,10.6,0
			C257.9,230.9,258.8,229.7,258.9,228.4z"/>
		<path class="st2" d="M251.4,228.5c-1.9,0-3.8-0.4-5.6-1.3c-1.4-0.6-2.3-2-2.4-3.5c0-0.3,0.2-0.5,0.5-0.5s0.5,0.2,0.5,0.5
			c0.1,1.2,0.9,2.2,1.9,2.6c3.2,1.6,6.9,1.6,10.1,0c1.1-0.5,1.8-1.5,1.9-2.6c0.1-0.3,0.4-0.4,0.6-0.4s0.3,0.2,0.4,0.4
			c-0.1,1.5-1,2.9-2.4,3.5C255.3,228.1,253.3,228.6,251.4,228.5z"/>
		<path class="st2" d="M251.4,223.8c-1.9,0-3.8-0.4-5.6-1.3c-1.4-0.6-2.3-2-2.4-3.5c0-0.3,0.2-0.5,0.5-0.5l0,0
			c0.3,0,0.5,0.2,0.5,0.5l0,0c0.1,1.2,0.9,2.1,1.9,2.6c3.2,1.6,6.9,1.6,10.1,0c1.1-0.5,1.8-1.5,1.9-2.6c0.1-0.3,0.4-0.4,0.6-0.4
			s0.3,0.2,0.4,0.4c-0.1,1.5-1,2.9-2.4,3.5C255.3,223.4,253.3,223.9,251.4,223.8z"/>
		<path class="st2" d="M251.4,219.1c-1.9,0-3.8-0.4-5.6-1.3c-1.4-0.6-2.3-2-2.4-3.5c0-0.3,0.2-0.5,0.5-0.5l0,0
			c0.3,0,0.5,0.2,0.5,0.5l0,0c0.1,1.2,0.9,2.1,1.9,2.6c3.2,1.6,6.9,1.6,10.1,0c1.1-0.5,1.8-1.5,1.9-2.6c0.1-0.3,0.4-0.4,0.6-0.4
			s0.3,0.2,0.4,0.4c-0.1,1.5-1,2.9-2.4,3.5C255.3,218.7,253.3,219.2,251.4,219.1z"/>
		<path class="st5" d="M247.1,203.9h-3.2v24.5c0.1,1.3,1,2.5,2.2,3.1c0.3,0.2,0.7,0.4,1,0.5v-16.1c3.9,0.9,7.8,1.3,11.8,1.1v-13.1
			H247.1z"/>
		<path class="st6" d="M220.4,168.1c0-18.6,15-30.6,33.6-30.6s33.6,12,33.6,30.6v20.3c0,0-6.7,10.6-33.6,10.6s-33.6-10-33.6-10
			V168.1z"/>
		<path class="st15" d="M259.3,144.1c-0.9,0.4-1.5,1-1.9,1.9c-0.2,0.9,0.1,1.8,0.8,2.4c0.7,0.6,1.4,1.1,2.3,1.4
			c4.4,1.9,9,3.5,13.7,4.6c1.2,0.3,3.5,1.1,4.4,0c1-1.3,0.4-4-1-5.7c-1.9-2.7-4.8-4.7-8-5.4C266.2,142.2,262.5,142.5,259.3,144.1z"
			/>
		<path class="st16" d="M287.6,175.6c0,0-1.9,10.2-15.2,15.1s-27.8,3.4-36.6,1.2c0,0,18.9,9.2,38.5,0.4
			C291.3,184.6,287.6,175.6,287.6,175.6z"/>
		<path class="st5" d="M265.6,139.2c-3.8-1.1-7.7-1.7-11.6-1.7c-18.6,0-33.6,12-33.6,30.6v20.8c0,0,2.8,4.1,11.8,7.1
			c-1.4-13.5-3.2-30.8,2.2-41.3C240.4,142.6,257.5,136.9,265.6,139.2z"/>
		<path class="st2" d="M253,181.9L253,181.9c-2.8,0-5-2.2-5-5v-2.3c0-2.8,2.2-5,5-5l0,0c2.8,0,5,2.2,5,5v2.3
			C258,179.7,255.8,181.9,253,181.9z"/>
		<path class="st2" d="M278,173.9L278,173.9c-2.4,0.9-3.6-0.2-4.1-1.4c-0.4-1.6-0.5-3.3-0.3-5c0.1-2.3,1.5-4.3,3.6-5.4l0,0
			c1.3-0.8,3.1-0.4,3.9,0.9c0.1,0.2,0.2,0.5,0.3,0.7c0.3,1.5,0.4,3,0.2,4.5C281.5,170.1,280.4,172.9,278,173.9z"/>
		<path class="st6" d="M291.1,174.3c-0.9-1-2.2-1.6-3.5-1.7v3c0,5-3.3,9.9-9.8,13.7c-11.4,6.6-29,7.4-42,2.6v-1
			c-0.2-4.3-2.5-8.3-6.2-10.7c-3.4-2-6.1-0.4-6.1,3.6c-1.9-2.3-3-5.2-3.1-8.1c-1.1,0-2.7,0.6-2.7,5c0,5.4-0.3,11.6,4.9,18.3
			c8.4,10.9,30.3,20.5,49.2,13c20.1-8,20.3-23.1,20.3-29.3C292.1,178.1,292.4,175.9,291.1,174.3z"/>
		<path class="st9" d="M291.1,174.3c-0.9-1-2.2-1.6-3.5-1.7v3c0,5-3.3,9.9-9.8,13.7c-11.4,6.6-29,7.4-42,2.6v-1
			c-0.2-4.3-2.5-8.3-6.2-10.7c-3.4-2-6.1-0.4-6.1,3.6c-1.9-2.3-3-5.2-3.1-8.1c-1.1,0-2.7,0.6-2.7,5c0,5.4-0.3,11.6,4.9,18.3
			c8.4,10.9,30.3,20.5,49.2,13c20.1-8,20.3-23.1,20.3-29.3C292.1,178.1,292.4,175.9,291.1,174.3z"/>
		<path class="st5" d="M260.2,213.1c-22.2-0.3-33-11.9-35.8-17.1s-2.6-10.5-0.9-9.8v-2.4c-1.9-2.3-3-5.2-3.1-8.1
			c-1.1,0-2.7,0.6-2.7,5c0,5.4-0.3,11.6,4.9,18.3c8.4,10.9,30.3,20.5,49.2,13c4.7-1.7,8.9-4.4,12.5-7.9
			C279.2,207.9,270.9,213.2,260.2,213.1z"/>
		<path class="st16" d="M230.6,180.9c2.1,1.6,3.7,5.1,3.7,11.9l1.5-0.9v-1C235.6,187,233.7,183.3,230.6,180.9z"/>
		<path class="st6" d="M287.6,175.6c0,5-3.3,9.9-9.8,13.7c-11.4,6.6-29,7.4-42,2.6l-1.5,0.9c0,0,18.2,10,38.7,1.9
			c19.2-7.6,18.8-17.8,18-20.4c-0.9-1-2.2-1.6-3.5-1.7L287.6,175.6z"/>
		<path class="st17" d="M287.6,175.6c0,5-3.3,9.9-9.8,13.7c-11.4,6.6-29,7.4-42,2.6l-1.5,0.9c0,0,18.2,10,38.7,1.9
			c19.2-7.6,18.8-17.8,18-20.4c-0.9-1-2.2-1.6-3.5-1.7L287.6,175.6z"/>
		<path class="st2" d="M228.7,183.6c1.5,1,2.4,2.6,2.5,4.4c0,1.6-1.1,2.3-2.5,1.5c-1.5-1-2.4-2.6-2.5-4.4
			C226.2,183.5,227.3,182.8,228.7,183.6z"/>
		<path class="st4" d="M228.7,183.6c-0.4-0.2-0.8-0.3-1.2-0.3c-0.3,0.4-0.4,0.9-0.4,1.3c0.1,1.8,1,3.4,2.5,4.4
			c0.4,0.2,0.8,0.3,1.2,0.3c0.3-0.4,0.4-0.9,0.4-1.3C231.2,186.2,230.2,184.6,228.7,183.6z"/>
		<path class="st6" d="M223.5,183.8c-1.9-2.3-3-5.2-3.1-8.1c-0.6,0-1.1,0.2-1.5,0.6c-0.5,1.6-0.4,3.4,0.4,5c0.8,2.1,2.3,3.8,4.3,4.9
			C223.4,185.4,223.4,184.6,223.5,183.8z"/>
		<path class="st13" d="M223.5,183.8c-1.9-2.3-3-5.2-3.1-8.1c-0.6,0-1.1,0.2-1.5,0.6c-0.5,1.6-0.4,3.4,0.4,5
			c0.8,2.1,2.3,3.8,4.3,4.9C223.4,185.4,223.4,184.6,223.5,183.8z"/>
		<path class="st4" d="M250.2,144.2v-18h-4.4v18l0,0c0,0.4,0.3,0.7,0.6,0.9c1,0.5,2.1,0.5,3.1,0
			C249.9,144.9,250.1,144.6,250.2,144.2z"/>
		<path class="st5" d="M245.8,129.2c0.7,0.2,1.4,0.3,2.2,0.3s1.5-0.1,2.2-0.3v-3.1h-4.4V129.2z"/>
		
			<ellipse transform="matrix(0.1602 -0.9871 0.9871 0.1602 90.2911 345.0368)" class="st6" cx="247.9" cy="119.5" rx="8.1" ry="8.1"/>
		<path class="st5" d="M247.9,123.7c-5.9-1-7.9-6.2-5.3-10.4c-3.4,2.9-3.8,8.1-0.9,11.5c2.9,3.4,8.1,3.8,11.5,0.9
			c1.8-1.5,2.8-3.8,2.8-6.2C255.7,122,253.1,124.6,247.9,123.7z"/>
		<path class="st18" d="M247.6,116.7c1.3,0.4,2.5,0.9,3.6,1.7c0.7,0.5,1.8,1.2,2.6,0.5s0.6-2,0.3-2.8c-0.4-1-1.2-1.9-2.1-2.4
			c-1.2-0.7-2.5-1-3.9-0.7c-0.8,0.2-2.2,0.6-2.4,1.6S246.7,116.4,247.6,116.7z"/>
		<path class="st1" d="M248,105.6c-0.6,0-1-0.4-1-1v-7c0-0.6,0.4-1,1-1s1,0.4,1,1v7C249,105.1,248.6,105.6,248,105.6z"/>
		<path class="st1" d="M255.4,107.6c-0.2,0-0.3,0-0.5-0.1c-0.5-0.3-0.6-0.9-0.4-1.4l0,0l3.5-6.1c0.3-0.5,0.9-0.7,1.3-0.4
			c0.5,0.3,0.7,0.9,0.4,1.3c0,0,0,0,0,0.1l-3.5,6.1C256,107.4,255.7,107.6,255.4,107.6z"/>
		<path class="st1" d="M260.8,113c-0.6,0-1-0.4-1-1c0-0.4,0.2-0.7,0.5-0.9l6.1-3.5c0.5-0.3,1.1-0.1,1.3,0.4c0.2,0.5,0.1,1-0.3,1.3
			l-6.1,3.5C261.2,113,261,113,260.8,113z"/>
		<path class="st1" d="M269.8,120.5h-7c-0.6,0-1-0.4-1-1s0.4-1,1-1h7c0.6,0,1,0.4,1,1S270.4,120.5,269.8,120.5z"/>
		<path class="st1" d="M266.9,131.4c-0.2,0-0.3-0.1-0.5-0.1l-6.1-3.5c-0.5-0.3-0.7-0.9-0.4-1.3c0.3-0.5,0.9-0.7,1.3-0.4
			c0,0,0,0,0.1,0l6.1,3.5c0.5,0.3,0.6,0.9,0.4,1.4l0,0C267.5,131.2,267.2,131.4,266.9,131.4z"/>
		<path class="st1" d="M229,131.3c-0.6,0-1-0.4-1-1c0-0.4,0.2-0.7,0.5-0.9l6.1-3.5c0.5-0.3,1.1-0.1,1.4,0.4c0.3,0.5,0.1,1.1-0.4,1.4
			l-6.1,3.5C229.3,131.3,229.2,131.3,229,131.3z"/>
		<path class="st1" d="M233.1,120.4h-7c-0.6,0-1-0.4-1-1s0.4-1,1-1h7c0.6,0,1,0.4,1,1S233.6,120.4,233.1,120.4z"/>
		<path class="st1" d="M235.1,113c-0.2,0-0.3,0-0.5-0.1l-6.1-3.5c-0.5-0.3-0.6-0.9-0.4-1.4c0.3-0.5,0.9-0.6,1.4-0.4l6.1,3.5
			c0.5,0.3,0.6,0.9,0.4,1.4l0,0C235.8,112.8,235.5,113,235.1,113z"/>
		<path class="st1" d="M240.6,107.5c-0.4,0-0.7-0.2-0.9-0.5l-3.5-6c-0.3-0.5-0.2-1.1,0.3-1.4s1.1-0.2,1.4,0.3c0,0,0,0,0,0.1l3.5,6.1
			c0.3,0.5,0.1,1.1-0.4,1.4C240.9,107.5,240.7,107.6,240.6,107.5L240.6,107.5z"/>
	</g>
</g>
<g id="freepik--error-404--inject-102">
	<g id="freepik--404--inject-102_00000104689380121933502680000017422799862152560022_">
		<path class="st4" d="M62,240.2c0.3-0.2,0.7-0.2,1,0c0.3,0.3,0.4,0.8,0.4,1.2v8.2c0,0.6-0.1,1.2-0.4,1.7c-0.2,0.5-0.5,0.9-1,1.2
			l-23.8,13.8c-0.3,0.2-0.7,0.2-0.9,0c-0.3-0.3-0.4-0.8-0.4-1.2v-49.9c0-0.6,0.1-1.2,0.4-1.7c0.2-0.5,0.5-0.9,0.9-1.2l23.4-13.5
			c0.3-0.2,0.7-0.2,1,0c0.3,0.3,0.4,0.8,0.4,1.2v8.2c0,0.6-0.2,1.2-0.4,1.7s-0.5,0.9-1,1.2L46.2,220v8.4l14.3-8.2
			c0.3-0.2,0.7-0.2,0.9,0c0.3,0.3,0.5,0.8,0.4,1.2v8.2c0,0.6-0.2,1.2-0.4,1.7s-0.5,0.9-0.9,1.2l-14.4,8.3v8.7L62,240.2z"/>
		<path class="st4" d="M85.4,185c1.8-1.1,3.8-1.9,5.9-2.3c1.5-0.3,3.1-0.1,4.4,0.7c1.4,0.9,2.4,2.3,2.8,3.9c0.7,2.4,1.1,4.8,1,7.3
			c0,3.6-0.5,7.1-1.5,10.5c-1,3-2.5,5.9-4.4,8.4l6.2,14.8c0.1,0.2,0.1,0.5,0.1,0.8c0,0.5-0.1,1-0.3,1.4c-0.2,0.4-0.4,0.7-0.8,0.9
			l-6.8,3.9c-0.7,0.4-1.1,0.4-1.4,0c-0.3-0.3-0.5-0.6-0.7-1L84.4,221l-4.6,2.7v16.5c0,0.6-0.2,1.2-0.4,1.7c-0.2,0.5-0.5,0.9-1,1.1
			l-6.6,4c-0.3,0.2-0.7,0.2-0.9,0c-0.3-0.3-0.5-0.8-0.4-1.2v-49.9c0-0.6,0.2-1.2,0.4-1.7c0.2-0.5,0.5-0.9,0.9-1.2L85.4,185z
			 M79.8,211.7l5.7-3.3c1.4-0.8,2.6-1.9,3.5-3.2c1-1.6,1.5-3.4,1.4-5.3c0-2.1-0.4-3.4-1.4-3.7c-1.2-0.2-2.5,0-3.5,0.8l-5.7,3.3
			V211.7z"/>
		<path class="st4" d="M121.5,164.1c1.8-1.1,3.8-1.9,5.9-2.3c1.5-0.3,3.1-0.1,4.4,0.7c1.4,0.9,2.4,2.3,2.8,3.9c0.7,2.4,1,4.8,1,7.3
			c0,3.6-0.5,7.1-1.5,10.5c-1,3-2.5,5.9-4.4,8.4l6.2,14.8c0.1,0.2,0.2,0.5,0.1,0.8c0,0.5-0.1,0.9-0.3,1.4c-0.2,0.4-0.4,0.7-0.8,0.9
			l-6.8,3.9c-0.7,0.4-1.1,0.4-1.4,0c-0.3-0.3-0.5-0.6-0.7-1l-5.7-13.2l-4.6,2.7v16.5c0,0.6-0.1,1.2-0.4,1.7
			c-0.2,0.5-0.5,0.9-0.9,1.2l-6.5,3.8c-0.3,0.2-0.7,0.2-0.9,0c-0.3-0.3-0.4-0.8-0.4-1.2V175c0-0.6,0.1-1.2,0.4-1.7
			c0.2-0.5,0.5-0.9,0.9-1.2L121.5,164.1z M115.8,190.8l5.7-3.3c1.4-0.8,2.6-1.9,3.5-3.2c1-1.6,1.5-3.4,1.4-5.3
			c0-2.2-0.5-3.4-1.4-3.7c-1.2-0.2-2.5,0-3.5,0.8l-5.7,3.3V190.8z"/>
		<path class="st4" d="M141.5,172.7c0.1-3,0.5-6,1.2-8.9s1.7-5.7,3-8.4c1.3-2.6,2.9-5,4.8-7.3c1.9-2.2,4.1-4,6.6-5.4
			c2-1.3,4.2-2,6.5-2.1c1.8,0,3.5,0.6,4.8,1.7c1.4,1.3,2.5,3,3,4.9c0.8,2.4,1.2,4.9,1.2,7.5c0,2.2,0,4.5,0,6.9s0,4.7,0,6.9
			c-0.1,3-0.5,6-1.2,8.9s-1.7,5.8-3,8.5c-1.3,2.6-2.9,5.1-4.8,7.3c-1.9,2.1-4.1,4-6.5,5.4c-2,1.3-4.2,2-6.6,2.1
			c-1.8,0.1-3.5-0.5-4.8-1.7c-1.5-1.3-2.5-3.1-3-5c-0.8-2.4-1.2-4.9-1.2-7.5c0-2.1,0-4.3,0-6.7C141.5,177.2,141.4,175,141.5,172.7z
			 M163.6,173.4c0-0.9,0-2,0.1-3.1s0-2.3,0-3.5s0-2.3,0-3.4s0-2.1-0.1-2.9c0-1.1-0.2-2.2-0.5-3.2c-0.2-0.8-0.6-1.5-1.2-2.1
			c-0.5-0.5-1.2-0.8-1.9-0.8c-1,0.1-1.9,0.4-2.7,0.9c-1,0.6-2,1.4-2.7,2.3c-0.8,0.9-1.4,1.9-1.9,3s-0.9,2.3-1.2,3.5
			c-0.3,1.3-0.5,2.6-0.5,3.9c0,0.9,0,1.9,0,3s0,2.3,0,3.5s0,2.3,0,3.4s0,2.1,0,3c-0.1,2,0.6,3.9,1.7,5.4c1,1.1,2.5,1.1,4.6-0.1
			c2.1-1.2,3.7-3,4.6-5.2C162.8,178.4,163.4,175.9,163.6,173.4L163.6,173.4z"/>
		<path class="st4" d="M195,121.7c1.8-1.1,3.8-1.9,5.9-2.3c1.5-0.3,3.1-0.1,4.4,0.7c1.4,0.9,2.4,2.3,2.8,3.9c0.7,2.4,1,4.8,1,7.3
			c0,3.6-0.5,7.1-1.5,10.5c-1,3-2.5,5.9-4.4,8.4l6.2,14.8c0.1,0.2,0.1,0.5,0.1,0.7c0,0.5-0.1,1-0.3,1.4s-0.4,0.7-0.8,0.9l-6.8,3.9
			c-0.6,0.4-1.1,0.4-1.4,0.1c-0.3-0.3-0.5-0.6-0.7-1l-5.6-13.3l-4.6,2.7v16.7c0,0.6-0.2,1.2-0.4,1.7s-0.5,0.9-0.9,1.2l-6.6,3.8
			c-0.3,0.3-0.7,0.3-1,0s-0.4-0.8-0.4-1.2v-49.9c0-0.6,0.1-1.2,0.4-1.7c0.2-0.5,0.5-0.9,1-1.2L195,121.7z M189.3,148.4l5.7-3.3
			c1.4-0.8,2.6-1.9,3.5-3.3c1-1.6,1.5-3.4,1.4-5.3c0-2.2-0.4-3.4-1.4-3.7c-1.2-0.2-2.5,0-3.5,0.8l-5.7,3.3V148.4z"/>
	</g>
</g>
<g id="freepik--speech-bubble--inject-102_00000122705085706280943780000008861703619129991326_">
	<g id="freepik--speech-bubble--inject-102_00000051373463199701100230000016453672561485910424_">
		<g id="freepik--speech-bubble--inject-102">
			<path class="st6" d="M397.1,85.8L321,129.6c-0.8,0.5-1.4,1.5-1.4,2.5v45.2c0.1,1,0.6,1.9,1.4,2.5l5.1,2.9c0.9,0.4,2,0.4,2.9,0
				l76.1-43.9c0.8-0.6,1.4-1.5,1.4-2.5V91.1c-0.1-1-0.6-1.9-1.4-2.5l-5.1-2.9C399.1,85.3,398,85.3,397.1,85.8z"/>
			<path class="st6" d="M327.6,181.8v-45.2c0.1-1,0.6-1.9,1.4-2.5l76.1-43.9c0.8-0.5,1.4-0.1,1.4,0.8v45.2c-0.1,1-0.6,1.9-1.4,2.5
				L329,182.6C328.2,183.1,327.6,182.7,327.6,181.8z"/>
			<path class="st16" d="M329,182.6c-0.9,0.5-2,0.5-2.9,0l-5.1-2.9c-0.9-0.5-1.4-1.5-1.4-2.5V132c0-0.5,0.2-1,0.5-1.5l8,4.6
				c-0.3,0.4-0.4,0.9-0.4,1.4v45.2C327.6,182.6,328.2,183.1,329,182.6z"/>
			<path class="st19" d="M406.5,90.8c-0.1-0.7-0.7-1-1.4-0.6L329,134.1c-0.4,0.3-0.8,0.6-1,1.1l-8-4.6c0.2-0.4,0.6-0.8,1-1
				l76.1-43.9c0.9-0.4,2-0.4,2.9,0l5.1,2.9C405.9,89.1,406.4,89.9,406.5,90.8z"/>
			<path class="st6" d="M319.6,151.8l-11.5,11.7c-0.5,0.5-0.5,1.3,0,1.8c0.1,0.1,0.2,0.1,0.3,0.2c0.2,0.1,8,4.6,8,4.6l11.3-13.7
				L319.6,151.8z"/>
			<path class="st9" d="M319.6,151.8l-11.5,11.7c-0.5,0.5-0.5,1.3,0,1.8c0.1,0.1,0.2,0.1,0.3,0.2c0.2,0.1,8,4.6,8,4.6l11.3-13.7
				L319.6,151.8z"/>
			<path class="st6" d="M327.6,156.4l-11.5,11.7c-0.5,0.5-0.5,1.3,0,1.8c0.3,0.3,0.7,0.4,1.1,0.4l10.4-1.5
				C328.7,168.8,328.7,156.4,327.6,156.4z"/>
		</g>
		<path class="st4" d="M335.1,148.7c0.1-1.3,0.2-2.7,0.6-4c0.3-1.3,0.8-2.6,1.4-3.8s1.3-2.3,2.2-3.3c0.9-1,1.9-1.8,3-2.5
			c0.9-0.6,1.9-0.9,3-1c0.8,0,1.6,0.3,2.2,0.8c0.7,0.6,1.1,1.4,1.4,2.2c0.4,1.1,0.5,2.2,0.6,3.4c0,1,0,2,0,3.1s0,2.1,0,3.1
			c0,1.3-0.2,2.7-0.6,4c-0.3,1.3-0.8,2.6-1.4,3.8s-1.3,2.3-2.2,3.3c-0.9,1-1.9,1.8-3,2.4c-0.9,0.6-1.9,0.9-3,1
			c-0.8,0-1.6-0.2-2.2-0.8c-0.7-0.6-1.1-1.4-1.4-2.2c-0.3-1.1-0.5-2.2-0.6-3.4c0-0.9,0-2,0-3.1S335.1,149.7,335.1,148.7z M345.1,149
			c0-0.4,0-0.9,0-1.4s0-1.1,0-1.6s0-1.1,0-1.6s0-0.9,0-1.3c0-0.5-0.1-1-0.2-1.5c-0.1-0.4-0.3-0.7-0.5-1c-0.2-0.2-0.6-0.3-0.9-0.4
			c-0.4,0-0.9,0.2-1.2,0.4c-0.5,0.3-0.9,0.6-1.2,1c-0.4,0.4-0.6,0.9-0.9,1.4c-0.2,0.5-0.4,1-0.5,1.6s-0.2,1.2-0.2,1.8
			c0,0.4,0,0.9-0.1,1.4c0,0.5,0,1,0,1.6s0,1.1,0,1.6s0,1,0.1,1.4c0,0.9,0.3,1.8,0.8,2.5c0.5,0.5,1.2,0.5,2.1-0.1
			c0.9-0.5,1.7-1.4,2.1-2.4C344.8,151.3,345.1,150.2,345.1,149L345.1,149z"/>
		<path class="st4" d="M363.9,137.1c0,0.3,0,0.8,0,1.3s0,1,0,1.4c0,1.2-0.2,2.3-0.5,3.4c-0.3,1.1-0.7,2.3-1.2,3.3s-1.2,2-1.9,2.9
			c-0.7,0.8-1.6,1.5-2.5,2.1c-0.8,0.5-1.6,0.8-2.5,0.8c-0.7,0-1.4-0.2-1.9-0.6c-0.6-0.5-1-1.1-1.3-1.9c-0.3-0.9-0.5-1.9-0.5-2.9
			c0-0.3,0-0.8,0-1.3s0-1,0-1.4c0-1.2,0.2-2.3,0.5-3.4c0.3-1.2,0.7-2.3,1.3-3.3c0.5-1,1.2-2,1.9-2.9c0.7-0.8,1.6-1.5,2.5-2.1
			c0.8-0.5,1.6-0.8,2.5-0.8c0.7,0,1.4,0.2,1.9,0.6c0.6,0.5,1,1.1,1.2,1.9C363.7,135.1,363.9,136.1,363.9,137.1z M355.6,144.4
			c0,0.6,0.2,1.3,0.6,1.7c0.5,0.3,1.1,0.2,1.5-0.1c0.6-0.4,1.1-0.9,1.5-1.6c0.4-0.8,0.6-1.6,0.6-2.4c0-0.4,0-0.8,0-1.2s0-0.8,0-1.2
			c0-0.6-0.2-1.3-0.6-1.7c-0.4-0.3-0.9-0.2-1.5,0.1c-0.6,0.4-1.1,0.9-1.5,1.6c-0.4,0.8-0.6,1.6-0.6,2.4c0,0.4-0.1,0.8,0,1.2
			C355.6,143.6,355.6,144,355.6,144.4L355.6,144.4z"/>
		<path class="st4" d="M373.4,142.4c-0.4,0.2-0.8,0.4-1.2,0.5c-0.3,0.1-0.6,0.1-0.9,0c-0.2-0.1-0.4-0.2-0.6-0.3s-0.3-0.3-0.4-0.4
			v7.5c0,0.3-0.1,0.5-0.2,0.8c-0.1,0.2-0.2,0.4-0.4,0.5l-2.9,1.7c-0.1,0.1-0.3,0.1-0.4,0c-0.1-0.2-0.2-0.4-0.2-0.6v-23
			c0-0.3,0.1-0.5,0.2-0.8c0.1-0.2,0.2-0.4,0.4-0.5l2.8-1.6c0.1-0.1,0.3-0.1,0.4,0c0.1,0.2,0.2,0.4,0.2,0.6v0.8
			c0.1-0.3,0.3-0.7,0.4-1c0.2-0.3,0.4-0.7,0.6-1c0.3-0.4,0.5-0.7,0.9-1c0.4-0.4,0.8-0.7,1.3-0.9c0.6-0.4,1.2-0.6,1.9-0.6
			c0.6,0,1.2,0.2,1.6,0.6c0.5,0.5,0.9,1.2,1.1,1.9c0.3,1.1,0.5,2.2,0.5,3.3c0,0.4,0,0.8,0,1.4s0,1.1,0,1.4c0,1.3-0.2,2.6-0.5,3.9
			c-0.3,1.1-0.6,2.1-1.1,3.1c-0.4,0.9-1,1.7-1.6,2.4C374.8,141.4,374.2,142,373.4,142.4z M374.4,133.3c0.1-0.7,0.1-1.3,0-2
			c0-0.6-0.2-1.3-0.5-1.8c-0.3-0.4-0.8-0.4-1.5,0c-0.3,0.2-0.6,0.4-0.9,0.7c-0.2,0.3-0.4,0.6-0.6,1s-0.3,0.7-0.4,1.1
			c-0.1,0.4-0.1,0.7-0.2,1.1c0,0.4,0,0.8,0,1.2s0,0.9,0,1.2s0.1,0.6,0.2,0.9c0.1,0.2,0.2,0.5,0.4,0.7c0.2,0.2,0.4,0.3,0.6,0.3
			c0.3,0,0.6-0.1,0.9-0.2c0.7-0.4,1.2-1,1.5-1.8C374.2,135,374.4,134.1,374.4,133.3L374.4,133.3z"/>
		<path class="st4" d="M387.7,128.3c0-0.3,0-0.4-0.2-0.5s-0.4-0.1-0.6,0c-0.4,0.1-0.7,0.2-1.1,0.4c-0.5,0.2-1,0.4-1.7,0.5
			c-0.9,0.4-1.9,0.2-2.7-0.4c-0.7-0.9-1.1-2.1-0.9-3.3c0-0.8,0.1-1.7,0.4-2.4c0.3-0.8,0.6-1.7,1.1-2.4c0.5-0.8,1-1.5,1.7-2.2
			c0.6-0.7,1.4-1.2,2.2-1.7c0.7-0.4,1.4-0.7,2.2-0.8c0.6-0.1,1.2-0.1,1.7,0.1s0.9,0.5,1.1,0.9c0.3,0.4,0.4,1,0.5,1.5
			c0,0.3-0.1,0.5-0.2,0.8c-0.1,0.2-0.2,0.4-0.4,0.5l-2.7,1.6c-0.2,0.1-0.3,0.1-0.4,0.1c-0.1-0.1-0.2-0.1-0.4-0.2
			c-0.2-0.1-0.4-0.1-0.5-0.1c-0.3,0.1-0.6,0.2-0.9,0.3c-0.3,0.2-0.6,0.4-0.9,0.7c-0.2,0.3-0.4,0.6-0.4,1c0,0.2,0,0.4,0.1,0.5
			s0.2,0.1,0.5,0.1c0.3-0.1,0.7-0.2,1-0.3l1.6-0.6c1.4-0.4,2.4-0.3,3,0.4c0.7,0.9,1,2,1,3.2c0,0.8-0.1,1.7-0.4,2.4
			c-0.3,0.9-0.7,1.7-1.1,2.5c-0.5,0.8-1.1,1.6-1.8,2.3c-0.7,0.7-1.5,1.4-2.4,1.9c-0.7,0.5-1.6,0.8-2.4,0.9c-0.6,0.1-1.2,0-1.7-0.2
			s-0.8-0.6-1.1-1c-0.3-0.5-0.4-1-0.4-1.5c0-0.3,0-0.5,0.2-0.8c0.1-0.2,0.3-0.4,0.5-0.5l2.8-1.6c0.2-0.1,0.3-0.1,0.4,0
			s0.2,0.2,0.3,0.2c0.2,0.1,0.3,0.1,0.5,0.1c0.4-0.1,0.7-0.2,1-0.4c0.4-0.3,0.8-0.6,1.2-1C387.5,129.2,387.6,128.8,387.7,128.3z"/>
		<path class="st4" d="M398.2,119.2c0,0.3-0.1,0.5-0.2,0.8c-0.1,0.2-0.2,0.4-0.4,0.5l-2.9,1.7c-0.1,0.1-0.3,0.1-0.4,0
			c-0.1-0.2-0.2-0.4-0.2-0.6v-15.2c0-0.3,0.1-0.5,0.2-0.8c0.1-0.2,0.2-0.4,0.4-0.5l2.9-1.7c0.1-0.1,0.3-0.1,0.4,0
			c0.1,0.2,0.2,0.4,0.2,0.6V119.2z M398.2,126.8c0,0.3-0.1,0.5-0.2,0.8c-0.1,0.2-0.2,0.4-0.4,0.5l-2.9,1.7c-0.1,0.1-0.3,0.1-0.4,0
			c-0.1-0.2-0.2-0.4-0.2-0.6v-3.6c0-0.3,0.1-0.5,0.2-0.8c0.1-0.2,0.2-0.4,0.4-0.5l2.9-1.7c0.1-0.1,0.3-0.1,0.4,0
			c0.1,0.2,0.2,0.4,0.2,0.6V126.8z"/>
	</g>
</g>
</svg>
